<?xml version="1.0" encoding="UTF-8" standalone="no"?>
<svg width="24px" height="24px" viewBox="0 0 24 24" version="1.1" xmlns="http://www.w3.org/2000/svg" xmlns:xlink="http://www.w3.org/1999/xlink" xmlns:sketch="http://www.bohemiancoding.com/sketch/ns">
    <!-- Generator: Sketch Beta 3.4 (14718) - http://www.bohemiancoding.com/sketch -->
    <title>Group</title>
    <desc>Created with Sketch Beta.</desc>
    <defs></defs>
    <g id="Page-1" stroke="none" stroke-width="1" fill="none" fill-rule="evenodd" sketch:type="MSPage">
        <g id="Dashboard-OK" sketch:type="MSArtboardGroup" transform="translate(-583.000000, -18.000000)" fill="#FFFFFF">
            <g id="Group" sketch:type="MSLayerGroup" transform="translate(583.000000, 18.000000)">
                <path d="M13.41552,12.9895238 C13.3872,12.9614286 13.35504,12.9371429 13.32048,12.9171429 L7.90848,8.4752381 C7.8936,8.46285714 7.87776,8.45142857 7.86144,8.44142857 C7.32768,8.03238095 6.52944,8.08809524 6.05856,8.5552381 C5.79936,8.81238095 5.6568,9.15428571 5.6568,9.51761905 C5.6568,9.8052381 5.748,10.0795238 5.92128,10.3147619 C5.9328,10.3338095 5.94624,10.3519048 5.96064,10.3695238 L10.45728,15.7490476 C10.53024,15.8590476 10.60704,15.9552381 10.67472,16.0238095 C10.6824,16.0328571 10.704,16.0566667 10.71216,16.0652381 C11.10288,16.4571429 11.62368,16.6728571 12.17808,16.6728571 C13.31568,16.6728571 14.24112,15.7547619 14.24112,14.6266667 C14.24112,13.9671429 13.92144,13.35 13.41552,12.9895238 L13.41552,12.9895238 Z M12.17808,15.72 C11.88192,15.72 11.60352,15.6042857 11.42352,15.4271429 C11.41536,15.417619 11.39424,15.3928571 11.3856,15.3838095 C11.33376,15.3304762 11.28912,15.2719048 11.24832,15.2090476 C11.23776,15.192381 11.22624,15.1771429 11.21376,15.1614286 L6.72912,9.79571429 C6.7224,9.78571429 6.7152,9.77666667 6.708,9.76666667 C6.66624,9.7147619 6.6168,9.62904762 6.6168,9.51666667 C6.6168,9.40761905 6.65952,9.3052381 6.73728,9.22809524 C6.89904,9.06666667 7.18752,9.12 7.29024,9.20714286 C7.30512,9.21904762 7.32,9.23095238 7.33584,9.24095238 L12.7968,13.7204762 C13.09968,13.9257143 13.28064,14.2638095 13.28064,14.6257143 C13.28112,15.2295238 12.78624,15.72 12.17808,15.72 L12.17808,15.72 Z" id="Shape" sketch:type="MSShapeGroup"></path>
                <path d="M4.15296,11.5971429 L3.27936,11.5971429 C3.0144,11.5971429 2.79936,11.81 2.79936,12.0733333 C2.79936,12.3366667 3.0144,12.5495238 3.27936,12.5495238 L4.15344,12.5495238 C4.4184,12.5495238 4.63344,12.3366667 4.63344,12.0733333 C4.63344,11.81 4.4184,11.5971429 4.15296,11.5971429 L4.15296,11.5971429 Z" id="Shape" sketch:type="MSShapeGroup"></path>
                <path d="M6.31008,6.99238095 C6.43296,6.99238095 6.55584,6.94571429 6.64944,6.85285714 C6.83712,6.66666667 6.83712,6.36571429 6.64944,6.17952381 L5.99088,5.52666667 C5.8032,5.34047619 5.49936,5.34047619 5.31216,5.52666667 C5.12448,5.71285714 5.12448,6.01380952 5.31216,6.2 L5.97072,6.85285714 C6.06432,6.94571429 6.1872,6.99238095 6.31008,6.99238095 L6.31008,6.99238095 Z" id="Shape" sketch:type="MSShapeGroup"></path>
                <path d="M12.25056,4.40761905 C12.51552,4.40761905 12.73056,4.1947619 12.73056,3.93142857 L12.73056,3.10095238 C12.73056,2.83761905 12.51552,2.6247619 12.25056,2.6247619 C11.9856,2.6247619 11.77056,2.83761905 11.77056,3.10095238 L11.77056,3.93142857 C11.77056,4.1947619 11.9856,4.40761905 12.25056,4.40761905 L12.25056,4.40761905 Z" id="Shape" sketch:type="MSShapeGroup"></path>
                <path d="M18.42672,5.53714286 L17.77968,6.17952381 C17.592,6.36571429 17.592,6.66666667 17.77968,6.85285714 C17.87328,6.94571429 17.99616,6.99238095 18.11904,6.99238095 C18.24192,6.99238095 18.3648,6.94571429 18.4584,6.85285714 L19.10544,6.21047619 C19.29312,6.02428571 19.29312,5.72333333 19.10544,5.53714286 C18.91776,5.35095238 18.61344,5.35142857 18.42672,5.53714286 L18.42672,5.53714286 Z" id="Shape" sketch:type="MSShapeGroup"></path>
                <path d="M20.98464,11.597619 L20.07408,11.597619 C19.80912,11.597619 19.59408,11.8104762 19.59408,12.0738095 C19.59408,12.3371429 19.80912,12.55 20.07408,12.55 L20.98464,12.55 C21.2496,12.55 21.46464,12.3371429 21.46464,12.0738095 C21.46464,11.8104762 21.25008,11.597619 20.98464,11.597619 L20.98464,11.597619 Z" id="Shape" sketch:type="MSShapeGroup"></path>
                <path d="M12,-7.10542736e-15 C5.38302649,-7.10542736e-15 1.0658141e-13,5.38302649 1.0658141e-13,12 C1.0658141e-13,18.6169735 5.38302649,24 12,24 C18.6169735,24 24,18.6169735 24,12 C24,5.38302649 18.6169735,-7.10542736e-15 12,-7.10542736e-15 L12,-7.10542736e-15 Z M12,23.0202882 C5.92333755,23.0202882 0.979711801,18.0766624 0.979711801,12 C0.979711801,5.92333755 5.92333755,0.979711801 12,0.979711801 C18.0766624,0.979711801 23.0202882,5.92333755 23.0202882,12 C23.0202882,18.0766624 18.0766624,23.0202882 12,23.0202882 L12,23.0202882 Z" id="Shape-Copy-4" sketch:type="MSShapeGroup"></path>
            </g>
        </g>
    </g>
</svg>