<?xml version="1.0" encoding="UTF-8" standalone="no"?>
<svg width="24px" height="24px" viewBox="0 0 24 24" version="1.1" xmlns="http://www.w3.org/2000/svg" xmlns:xlink="http://www.w3.org/1999/xlink" xmlns:sketch="http://www.bohemiancoding.com/sketch/ns">
    <!-- Generator: Sketch Beta 3.4 (14718) - http://www.bohemiancoding.com/sketch -->
    <title>Shape Copy 3 + Shape</title>
    <desc>Created with Sketch Beta.</desc>
    <defs></defs>
    <g id="Page-1" stroke="none" stroke-width="1" fill="none" fill-rule="evenodd" sketch:type="MSPage">
        <g id="Dashboard-OK" sketch:type="MSArtboardGroup" transform="translate(-730.000000, -18.000000)" fill="#FFFFFF">
            <g id="Shape-Copy-3-+-Shape" sketch:type="MSLayerGroup" transform="translate(730.000000, 18.000000)">
                <path d="M12,-7.10542736e-15 C5.38302649,-7.10542736e-15 1.0658141e-13,5.38302649 1.0658141e-13,12 C1.0658141e-13,18.6169735 5.38302649,24 12,24 C18.6169735,24 24,18.6169735 24,12 C24,5.38302649 18.6169735,-7.10542736e-15 12,-7.10542736e-15 L12,-7.10542736e-15 Z M12,23.0202882 C5.92333755,23.0202882 0.979711801,18.0766624 0.979711801,12 C0.979711801,5.92333755 5.92333755,0.979711801 12,0.979711801 C18.0766624,0.979711801 23.0202882,5.92333755 23.0202882,12 C23.0202882,18.0766624 18.0766624,23.0202882 12,23.0202882 L12,23.0202882 Z" id="Shape-Copy-3" sketch:type="MSShapeGroup"></path>
                <path d="M15.7006155,11.2981381 L15.7006155,11.2981381 L15.1918217,11.9287678 L13.4480722,11.9324415 L12.1390247,11.9351994 L12.480611,10.6715017 L13.7480048,5.98278058 L15.191884,4.16142433 L15.2661003,4.19885808 L14.6596065,6.44258067 L9.2781572,13.2309162 L8.48211077,13.232526 L8.29949959,12.8557025 L8.79402408,12.2318932 L10.5522299,12.2283375 L11.8693774,12.2256738 L11.5180155,13.4950946 L10.2593941,18.042316 L8.81010869,19.8386477 L8.73523353,19.8001934 L9.3509352,17.5757502 L14.7129268,10.9297745 L15.5232119,10.9280674 L15.7006155,11.2981381 Z M13.6453023,10.1949973 L13.4459654,10.9324437 L14.2098763,10.9308343 L14.4824446,10.9302601 L16,10.9270629 L8.67992924,20 L10.2773076,14.2288976 L10.3517247,13.9600388 L10.5542523,13.2283354 L9.79503894,13.2298708 L9.51607189,13.230435 L8,13.233501 L15.319853,4 L13.716427,9.93187168 L13.6453023,10.1949973 Z" id="Shape" sketch:type="MSShapeGroup"></path>
            </g>
        </g>
    </g>
</svg>