<?xml version="1.0" encoding="UTF-8" standalone="no"?>
<svg width="24px" height="24px" viewBox="0 0 24 24" version="1.1" xmlns="http://www.w3.org/2000/svg" xmlns:xlink="http://www.w3.org/1999/xlink" xmlns:sketch="http://www.bohemiancoding.com/sketch/ns">
    <!-- Generator: Sketch Beta 3.4 (14718) - http://www.bohemiancoding.com/sketch -->
    <title>Group</title>
    <desc>Created with Sketch Beta.</desc>
    <defs></defs>
    <g id="Page-1" stroke="none" stroke-width="1" fill="none" fill-rule="evenodd" sketch:type="MSPage">
        <g id="Dashboard-OK" sketch:type="MSArtboardGroup" transform="translate(-877.000000, -18.000000)" fill="#FFFFFF">
            <g id="Group" sketch:type="MSLayerGroup" transform="translate(877.000000, 18.000000)">
                <path d="M8.38277512,6.94846749 L8.38277512,6.37238614 C8.38277512,6.16682899 8.21129187,6 8,6 C7.78870813,6 7.61722488,6.16682899 7.61722488,6.37238614 L7.61722488,6.94846749 C6.69741627,7.12311659 6,7.91108565 6,8.85657405 C6,9.80206245 6.69703349,10.5904039 7.61722488,10.7646806 L7.61722488,18.6276139 C7.61722488,18.833171 7.78870813,19 8,19 C8.21129187,19 8.38277512,18.833171 8.38277512,18.6276139 L8.38277512,10.7646806 C9.30296651,10.5904039 10,9.80206245 10,8.85657405 C10,7.91108565 9.30296651,7.12311659 8.38277512,6.94846749 L8.38277512,6.94846749 Z M8,10.0578917 C7.31942584,10.0578917 6.76555024,9.51904898 6.76555024,8.85694643 C6.76555024,8.19484388 7.31942584,7.65600115 8,7.65600115 C8.68057416,7.65600115 9.23444976,8.19484388 9.23444976,8.85694643 C9.23444976,9.51904898 8.68057416,10.0578917 8,10.0578917 L8,10.0578917 Z" id="Shape" sketch:type="MSShapeGroup"></path>
                <path d="M12.3827751,13.6201375 L12.3827751,6.37238614 C12.3827751,6.16682899 12.2112919,6 12,6 C11.7887081,6 11.6172249,6.16682899 11.6172249,6.37238614 L11.6172249,13.6205099 C10.6970335,13.7947866 10,14.583128 10,15.5286164 C10,16.4741048 10.6970335,17.2624463 11.6172249,17.436723 L11.6172249,18.6276139 C11.6172249,18.833171 11.7887081,19 12,19 C12.2112919,19 12.3827751,18.833171 12.3827751,18.6276139 L12.3827751,17.436723 C13.3025837,17.2620739 14,16.4741048 14,15.5286164 C14,14.583128 13.3029665,13.7947866 12.3827751,13.6201375 L12.3827751,13.6201375 Z M12,16.7295617 C11.3194258,16.7295617 10.7655502,16.190719 10.7655502,15.5286164 C10.7655502,14.8665139 11.3194258,14.3276712 12,14.3276712 C12.6805742,14.3276712 13.2344498,14.8665139 13.2344498,15.5286164 C13.2344498,16.190719 12.6805742,16.7295617 12,16.7295617 L12,16.7295617 Z" id="Shape" sketch:type="MSShapeGroup"></path>
                <path d="M16.3827751,8.85471212 L16.3827751,6.37238614 C16.3827751,6.16682899 16.2112919,6 16,6 C15.7887081,6 15.6172249,6.16682899 15.6172249,6.37238614 L15.6172249,8.85471212 C14.6970335,9.02898883 14,9.81733028 14,10.7628187 C14,11.7083071 14.6970335,12.4966485 15.6172249,12.6709252 L15.6172249,18.6276139 C15.6172249,18.833171 15.7887081,19 16,19 C16.2112919,19 16.3827751,18.833171 16.3827751,18.6276139 L16.3827751,12.6709252 C17.3029665,12.4966485 18,11.7083071 18,10.7628187 C18,9.81733028 17.3025837,9.02898883 16.3827751,8.85471212 L16.3827751,8.85471212 Z M16.3827751,11.8985964 C16.2614354,11.9373245 16.1343541,11.963764 16,11.963764 L16,11.963764 C15.8656459,11.963764 15.7385646,11.9376969 15.6172249,11.8985964 C15.1245933,11.7407047 14.7655502,11.2942137 14.7655502,10.7628187 C14.7655502,10.2314237 15.1245933,9.7845603 15.6172249,9.62704096 C15.7385646,9.5883128 15.8656459,9.56187339 16,9.56187339 L16,9.56187339 C16.1343541,9.56187339 16.2614354,9.58794042 16.3827751,9.62704096 C16.8754067,9.78493268 17.2344498,10.2314237 17.2344498,10.7628187 C17.2344498,11.2942137 16.8754067,11.7407047 16.3827751,11.8985964 L16.3827751,11.8985964 Z" id="Shape" sketch:type="MSShapeGroup"></path>
                <path d="M12,-7.10542736e-15 C5.38302649,-7.10542736e-15 1.0658141e-13,5.38302649 1.0658141e-13,12 C1.0658141e-13,18.6169735 5.38302649,24 12,24 C18.6169735,24 24,18.6169735 24,12 C24,5.38302649 18.6169735,-7.10542736e-15 12,-7.10542736e-15 L12,-7.10542736e-15 Z M12,23.0202882 C5.92333755,23.0202882 0.979711801,18.0766624 0.979711801,12 C0.979711801,5.92333755 5.92333755,0.979711801 12,0.979711801 C18.0766624,0.979711801 23.0202882,5.92333755 23.0202882,12 C23.0202882,18.0766624 18.0766624,23.0202882 12,23.0202882 L12,23.0202882 Z" id="Shape-Copy-2" sketch:type="MSShapeGroup"></path>
            </g>
        </g>
    </g>
</svg>