<?xml version="1.0" encoding="UTF-8" standalone="no"?>
<svg width="18px" height="23px" viewBox="0 0 18 23" version="1.1" xmlns="http://www.w3.org/2000/svg" xmlns:xlink="http://www.w3.org/1999/xlink" xmlns:sketch="http://www.bohemiancoding.com/sketch/ns">
    <!-- Generator: Sketch Beta 3.4 (14718) - http://www.bohemiancoding.com/sketch -->
    <title>Shape + Shape</title>
    <desc>Created with Sketch Beta.</desc>
    <defs></defs>
    <g id="Page-1" stroke="none" stroke-width="1" fill="none" fill-rule="evenodd" sketch:type="MSPage">
        <g id="Dashboard-OK" sketch:type="MSArtboardGroup" transform="translate(-1138.000000, -20.000000)" fill="#FFFFFF">
            <g id="Shape-+-Shape" sketch:type="MSLayerGroup" transform="translate(1138.000000, 20.000000)">
                <path d="M10.8890769,20.22206 C10.6343077,20.22206 10.4275385,20.42768 10.4275385,20.68206 C10.4275385,21.4245 9.76938462,22.02848 8.96030769,22.02848 C8.15169231,22.02848 7.49353846,21.42496 7.49353846,20.68206 C7.49353846,20.42768 7.28676923,20.22206 7.032,20.22206 C6.77723077,20.22206 6.57046154,20.42768 6.57046154,20.68206 C6.57046154,21.93188 7.64261538,22.94848 8.96030769,22.94848 C10.2784615,22.94848 11.3506154,21.93188 11.3506154,20.68206 C11.3506154,20.42768 11.1438462,20.22206 10.8890769,20.22206 L10.8890769,20.22206 Z" id="Shape" sketch:type="MSShapeGroup"></path>
                <path d="M15.3807692,14.4049 L15.3807692,8.3674 C15.3807692,5.8972 13.7750769,3.6938 11.3506154,2.78714 L11.3506154,2.63994 C11.3506154,1.38966 10.2784615,0.37214 8.96030769,0.37214 C7.64261538,0.37214 6.57046154,1.38966 6.57046154,2.63994 L6.57046154,2.78622 C4.14692308,3.69472 2.54123077,5.89858 2.54123077,8.3674 L2.54123077,14.4049 C1.04261538,14.69562 0.0286153846,15.59906 0.0286153846,16.68972 L0.0286153846,18.38022 C0.0286153846,18.76202 0.340153846,19.07298 0.723692308,19.07298 L17.1969231,19.07298 C17.5804615,19.07298 17.8924615,18.76202 17.8924615,18.38022 L17.8924615,16.68972 C17.8924615,15.59952 16.8784615,14.69654 15.3807692,14.4049 L15.3807692,14.4049 Z M16.9693846,18.15252 L0.951692308,18.15252 L0.951692308,16.68926 C0.951692308,15.99696 1.83646154,15.39436 3.05492308,15.2559 C3.288,15.22968 3.46430769,15.03326 3.46430769,14.79912 L3.46430769,8.3674 C3.46430769,6.19252 4.95461538,4.2573 7.17230769,3.5512 C7.36384615,3.49048 7.49353846,3.31338 7.49353846,3.11328 L7.49353846,2.63994 C7.49353846,1.89704 8.15169231,1.29214 8.96030769,1.29214 C9.76938462,1.29214 10.4275385,1.89658 10.4275385,2.63994 L10.4275385,3.1142 C10.4275385,3.31476 10.5576923,3.4914 10.7487692,3.55258 C12.9673846,4.25638 14.4576923,6.1916 14.4576923,8.3674 L14.4576923,14.79912 C14.4576923,15.03326 14.6335385,15.22968 14.8670769,15.2559 C16.0855385,15.39482 16.9693846,15.99696 16.9693846,16.68926 L16.9693846,18.15252 L16.9693846,18.15252 Z" id="Shape" sketch:type="MSShapeGroup"></path>
            </g>
        </g>
    </g>
</svg>