<?xml version="1.0" encoding="UTF-8" standalone="no"?>
<svg width="24px" height="24px" viewBox="0 0 24 24" version="1.1" xmlns="http://www.w3.org/2000/svg" xmlns:xlink="http://www.w3.org/1999/xlink" xmlns:sketch="http://www.bohemiancoding.com/sketch/ns">
    <!-- Generator: Sketch Beta 3.4 (14861) - http://www.bohemiancoding.com/sketch -->
    <title>Shape Copy 2 + $</title>
    <desc>Created with Sketch Beta.</desc>
    <defs></defs>
    <g id="Page-1" stroke="none" stroke-width="1" fill="none" fill-rule="evenodd" sketch:type="MSPage">
        <g id="Dashboard-OK" sketch:type="MSArtboardGroup" transform="translate(-657.000000, -90.000000)" fill="#00C248">
            <g id="Shape-Copy-2-+-$" sketch:type="MSLayerGroup" transform="translate(657.000000, 90.000000)">
                <path d="M12,0 C5.38302649,0 0,5.38302649 0,12 C0,18.6169735 5.38302649,24 12,24 C18.6169735,24 24,18.6169735 24,12 C24,5.38302649 18.6169735,0 12,0 L12,0 Z M12,23.0202882 C5.92333755,23.0202882 0.979711801,18.0766624 0.979711801,12 C0.979711801,5.92333755 5.92333755,0.979711801 12,0.979711801 C18.0766624,0.979711801 23.0202882,5.92333755 23.0202882,12 C23.0202882,18.0766624 18.0766624,23.0202882 12,23.0202882 L12,23.0202882 Z" id="Shape-Copy-2" sketch:type="MSShapeGroup"></path>
                <text id="$" sketch:type="MSTextLayer" font-family="Open Sans" font-size="14" font-weight="bold" sketch:alignment="middle">
                    <tspan x="8.00439453" y="17">$</tspan>
                </text>
            </g>
        </g>
    </g>
</svg>