<?xml version="1.0" encoding="UTF-8"?>
<svg width="200px" height="200px" viewBox="0 0 200 200" version="1.1" xmlns="http://www.w3.org/2000/svg" xmlns:xlink="http://www.w3.org/1999/xlink">
    <!-- Generator: Sketch 3.8.3 (29802) - http://www.bohemiancoding.com/sketch -->
    <title>Artboard 1</title>
    <desc>Created with Sketch.</desc>
    <defs></defs>
    <g id="Page-1" stroke="none" stroke-width="1" fill="none" fill-rule="evenodd">
        <g id="Artboard-1">
            <g id="Group-2" transform="translate(5.000000, 4.000000)">
                <circle id="Oval-1" stroke="#505050" stroke-width="4" cx="95" cy="95" r="95"></circle>
                <g id="notes" opacity="0.739583333" transform="translate(40.000000, 48.000000)"></g>
            </g>
            <g id="arrow-down-sign-to-navigate" opacity="0.65508381" transform="translate(45.000000, 69.000000)"></g>
            <g id="archive" opacity="0.75" transform="translate(60.000000, 54.000000)" fill="#000000">
                <g id="Capa_1">
                    <g id="Group">
                        <path d="M76.752,0 L4.248,0 C1.9065,0 0,1.9065 0,4.248 L0,85.752 C0,88.0935 1.9065,90 4.248,90 L76.752,90 C79.0935,90 81,88.0935 81,85.752 L81,4.248 C81,1.9065 79.0935,0 76.752,0 L76.752,0 Z M4.248,3 L76.752,3 C77.4405,3 78,3.5595 78,4.248 L78,43.5 L3,43.5 L3,4.248 C3,3.5595 3.5595,3 4.248,3 L4.248,3 Z M76.752,87 L4.248,87 C3.5595,87 3,86.4405 3,85.752 L3,46.5 L78,46.5 L78,85.752 C78,86.4405 77.4405,87 76.752,87 L76.752,87 Z" id="Shape"></path>
                        <path d="M32.2575,27 L48.7425,27 C51.642,27 54,24.642 54,21.7425 L54,19.5 C54,18.6705 53.3295,18 52.5,18 C51.6705,18 51,18.6705 51,19.5 L51,21.7425 C51,22.9875 49.9875,24 48.7425,24 L32.2575,24 C31.0125,24 30,22.9875 30,21.7425 L30,19.5 C30,18.6705 29.3295,18 28.5,18 C27.6705,18 27,18.6705 27,19.5 L27,21.7425 C27,24.642 29.358,27 32.2575,27 L32.2575,27 Z" id="Shape"></path>
                        <path d="M52.5,61.5 C51.6705,61.5 51,62.1705 51,63 L51,65.2425 C51,66.4875 49.9875,67.5 48.7425,67.5 L32.2575,67.5 C31.0125,67.5 30,66.4875 30,65.2425 L30,63 C30,62.1705 29.3295,61.5 28.5,61.5 C27.6705,61.5 27,62.1705 27,63 L27,65.2425 C27,68.142 29.358,70.5 32.2575,70.5 L48.7425,70.5 C51.642,70.5 54,68.142 54,65.2425 L54,63 C54,62.1705 53.3295,61.5 52.5,61.5 L52.5,61.5 Z" id="Shape"></path>
                    </g>
                </g>
            </g>
        </g>
    </g>
</svg>