<?xml version="1.0" encoding="utf-8"?>
<!-- Generator: Adobe Illustrator 16.0.4, SVG Export Plug-In . SVG Version: 6.00 Build 0)  -->
<!DOCTYPE svg PUBLIC "-//W3C//DTD SVG 1.1//EN" "http://www.w3.org/Graphics/SVG/1.1/DTD/svg11.dtd">
<svg version="1.1" id="Capa_1" xmlns="http://www.w3.org/2000/svg" xmlns:xlink="http://www.w3.org/1999/xlink" x="0px" y="0px"
	 width="90px" height="90px" viewBox="0 0 90 90" enable-background="new 0 0 90 90" xml:space="preserve">
<g>
	<g>
		<path fill="#FFFFFF" d="M65.545,14.302c-0.398,0-0.799-0.174-1.069-0.516L56.119,3.278l-10.508,8.356
			c-0.584,0.466-1.446,0.376-1.917-0.218c-0.469-0.589-0.371-1.446,0.218-1.915l11.575-9.208c0.59-0.463,1.448-0.376,1.918,0.218
			l9.207,11.575c0.469,0.589,0.371,1.445-0.219,1.915C66.145,14.204,65.845,14.302,65.545,14.302z"/>
		<path fill="#FFFFFF" d="M12.267,46.797c-0.752,0-1.363-0.61-1.363-1.363s0.611-1.364,1.363-1.364
			c23.55,0,42.707-19.156,42.707-42.706c0-0.753,0.61-1.364,1.364-1.364c0.752,0,1.363,0.611,1.363,1.364
			C57.701,26.417,37.32,46.797,12.267,46.797z"/>
	</g>
	<path fill="#FFFFFF" d="M12.267,90c-0.752,0-1.363-0.611-1.363-1.363V67.658c0-0.753,0.611-1.363,1.363-1.363
		c0.753,0,1.364,0.61,1.364,1.363v20.979C13.631,89.389,13.02,90,12.267,90z"/>
	<path fill="#FFFFFF" d="M34.091,90c-0.752,0-1.364-0.611-1.364-1.363V54.423c0-0.753,0.611-1.364,1.364-1.364
		c0.753,0,1.364,0.611,1.364,1.364v34.214C35.455,89.389,34.844,90,34.091,90z"/>
	<path fill="#FFFFFF" d="M55.912,90c-0.753,0-1.363-0.611-1.363-1.363V44.913c0-0.752,0.61-1.363,1.363-1.363
		c0.752,0,1.363,0.611,1.363,1.363v43.724C57.275,89.389,56.664,90,55.912,90z"/>
	<path fill="#FFFFFF" d="M77.732,90c-0.752,0-1.363-0.611-1.363-1.363V30.919c0-0.752,0.611-1.363,1.363-1.363
		c0.753,0,1.363,0.611,1.363,1.363v57.718C79.096,89.389,78.485,90,77.732,90z"/>
</g>
</svg>
