<?xml version="1.0" encoding="UTF-8"?>
<svg width="200px" height="200px" viewBox="0 0 200 200" version="1.1" xmlns="http://www.w3.org/2000/svg" xmlns:xlink="http://www.w3.org/1999/xlink">
    <!-- Generator: Sketch 3.8.3 (29802) - http://www.bohemiancoding.com/sketch -->
    <title>Artboard 1</title>
    <desc>Created with Sketch.</desc>
    <defs></defs>
    <g id="Page-1" stroke="none" stroke-width="1" fill="none" fill-rule="evenodd">
        <g id="Artboard-1">
            <g id="Group-2" transform="translate(5.000000, 4.000000)">
                <circle id="Oval-1" stroke="#505050" stroke-width="4" cx="95" cy="95" r="95"></circle>
                <g id="notes" opacity="0.739583333" transform="translate(40.000000, 48.000000)"></g>
            </g>
            <g id="arrow-down-sign-to-navigate" opacity="0.65508381" transform="translate(45.000000, 69.000000)"></g>
            <g id="cursor" opacity="0.73901721" transform="translate(61.000000, 61.000000)" fill="#000000">
                <g id="Capa_1">
                    <g id="Group">
                        <path d="M79.2126599,67.6630303 L63.2923906,51.7422222 L74.6502357,45.1814141 C75.5377778,44.6685522 76.0544108,43.6942761 75.9803367,42.6720539 C75.9068013,41.6495623 75.2557576,40.7593266 74.303569,40.379798 L23.6552189,20.176431 C22.6620875,19.7799327 21.5286195,20.013468 20.7725253,20.7692929 C20.016431,21.5256566 19.7828956,22.6591246 20.1791246,23.6519865 L40.3795286,74.3059933 C40.7593266,75.2579125 41.6495623,75.9092256 42.6720539,75.9830303 C43.6945455,76.0573737 44.6688215,75.5404714 45.1814141,74.6526599 L51.7411448,63.2948148 L67.6608754,79.2158923 C68.1624242,79.7179798 68.8430976,79.9997306 69.5525926,79.9997306 C70.2620875,79.9997306 70.9424916,79.7179798 71.4440404,79.2158923 L79.2126599,71.4464646 C80.2575084,70.4016162 80.2575084,68.7078788 79.2126599,67.6630303 L79.2126599,67.6630303 Z M69.5525926,73.5412795 L53.0599327,57.0470034 C52.5546128,56.5416835 51.872862,56.263165 51.1682155,56.263165 C51.0523906,56.263165 50.9354882,56.2707071 50.8193939,56.2860606 C49.9943434,56.3943434 49.2670707,56.8802694 48.8514478,57.6008081 L43.306936,67.2013468 L27.4553535,27.453468 L67.1991919,43.3072054 L57.5978451,48.8527946 C56.8775758,49.2684175 56.3916498,49.9956902 56.283367,50.8207407 C56.1748148,51.6449832 56.4557576,52.4729966 57.0440404,53.0612795 L73.5375084,69.5555556 L69.5525926,73.5412795 L69.5525926,73.5412795 Z" id="Shape"></path>
                        <path d="M11.7470707,7.96013468 C10.7019529,6.91609428 9.00875421,6.91609428 7.96309764,7.96013468 C6.91824916,9.00525253 6.91824916,10.6989899 7.96309764,11.7441077 L13.9076094,17.6886195 C14.429899,18.2106397 15.1148822,18.4721886 15.799596,18.4721886 C16.4840404,18.4721886 17.1684848,18.2106397 17.6913131,17.6886195 C18.7358923,16.643771 18.7358923,14.9497643 17.6913131,13.9049158 L11.7470707,7.96013468 L11.7470707,7.96013468 Z" id="Shape"></path>
                        <path d="M13.7613468,26.4552189 C13.7613468,24.9777778 12.5632323,23.780202 11.0857912,23.780202 L2.67905724,23.780202 C1.20188552,23.780202 0.0035016835,24.9775084 0.0035016835,26.4552189 C0.0035016835,27.9323906 1.20161616,29.1305051 2.67905724,29.1305051 L11.0857912,29.1305051 C12.5632323,29.1302357 13.7613468,27.9323906 13.7613468,26.4552189 L13.7613468,26.4552189 Z" id="Shape"></path>
                        <path d="M12.6769024,34.7124579 L6.73185185,40.6575084 C5.68673401,41.7018182 5.68673401,43.3958249 6.73185185,44.4406734 C7.25414141,44.962963 7.9383165,45.2242424 8.62356902,45.2242424 C9.30801347,45.2242424 9.99245791,44.962963 10.5147475,44.4406734 L16.4600673,38.4958923 C17.5049158,37.4513131 17.5049158,35.757037 16.4600673,34.7124579 C15.4157576,33.6678788 13.7220202,33.6678788 12.6769024,34.7124579 L12.6769024,34.7124579 Z" id="Shape"></path>
                        <path d="M26.4571044,13.7583838 C27.9342761,13.7583838 29.1323906,12.5602694 29.1323906,11.0828283 L29.1323906,2.6752862 C29.1323906,1.19811448 27.9345455,0 26.4571044,0 C24.9796633,0 23.7820875,1.19784512 23.7820875,2.6752862 L23.7820875,11.0830976 C23.7820875,12.5602694 24.9793939,13.7583838 26.4571044,13.7583838 L26.4571044,13.7583838 Z" id="Shape"></path>
                        <path d="M36.6041751,17.240404 C37.2894276,17.240404 37.9738721,16.9796633 38.4961616,16.4571044 L44.440404,10.5125926 C45.4855219,9.46774411 45.4855219,7.77373737 44.440404,6.72915825 C43.3958249,5.68430976 41.7012795,5.68430976 40.6572391,6.72915825 L34.7127273,12.67367 C33.6678788,13.7182492 33.6678788,15.4125253 34.7127273,16.4571044 C35.2350168,16.9796633 35.9197306,17.240404 36.6041751,17.240404 L36.6041751,17.240404 Z" id="Shape"></path>
                    </g>
                </g>
            </g>
        </g>
    </g>
</svg>