<?xml version="1.0" encoding="utf-8"?>
<!-- Generator: Adobe Illustrator 16.0.4, SVG Export Plug-In . SVG Version: 6.00 Build 0)  -->
<!DOCTYPE svg PUBLIC "-//W3C//DTD SVG 1.1//EN" "http://www.w3.org/Graphics/SVG/1.1/DTD/svg11.dtd">
<svg version="1.1" id="Capa_1" xmlns="http://www.w3.org/2000/svg" xmlns:xlink="http://www.w3.org/1999/xlink" x="0px" y="0px"
	 width="90px" height="90px" viewBox="0 0 90 90" enable-background="new 0 0 90 90" xml:space="preserve">
<g>
	<path fill="#FFFFFF" d="M12.857,22.5c5.656,0,10.337-4.201,11.122-9.643h62.807c0.889,0,1.607-0.718,1.607-1.607
		s-0.719-1.607-1.607-1.607H23.979C23.194,4.201,18.513,0,12.857,0C6.653,0,1.607,5.048,1.607,11.25S6.653,22.5,12.857,22.5z
		 M12.857,3.214c4.431,0,8.036,3.605,8.036,8.036s-3.605,8.036-8.036,8.036c-4.431,0-8.036-3.605-8.036-8.036
		S8.426,3.214,12.857,3.214z"/>
	<path fill="#FFFFFF" d="M77.143,67.5c-5.655,0-10.337,4.201-11.121,9.643H3.214c-0.887,0-1.607,0.719-1.607,1.607
		s0.72,1.607,1.607,1.607h62.807C66.806,85.799,71.487,90,77.143,90c6.202,0,11.25-5.048,11.25-11.25S83.345,67.5,77.143,67.5z
		 M77.143,86.785c-4.431,0-8.035-3.604-8.035-8.035s3.604-8.035,8.035-8.035c4.432,0,8.036,3.604,8.036,8.035
		S81.574,86.785,77.143,86.785z"/>
	<path fill="#FFFFFF" d="M86.785,43.393H56.842c-0.637-5.789-5.553-10.309-11.509-10.309c-5.956,0-10.872,4.521-11.509,10.309H3.214
		c-0.887,0-1.607,0.718-1.607,1.607s0.72,1.607,1.607,1.607h30.711c0.927,5.464,5.683,9.643,11.407,9.643
		c5.724,0,10.478-4.179,11.406-9.643h30.047c0.889,0,1.607-0.719,1.607-1.607S87.674,43.393,86.785,43.393z M45.333,53.035
		c-4.614,0-8.368-3.754-8.368-8.368c0-4.614,3.754-8.369,8.368-8.369c4.615,0,8.369,3.754,8.369,8.369
		C53.701,49.281,49.947,53.035,45.333,53.035z"/>
</g>
</svg>
