<?xml version="1.0" encoding="UTF-8" standalone="no"?>
<svg width="24px" height="24px" viewBox="0 0 24 24" version="1.1" xmlns="http://www.w3.org/2000/svg" xmlns:xlink="http://www.w3.org/1999/xlink" xmlns:sketch="http://www.bohemiancoding.com/sketch/ns">
    <!-- Generator: Sketch Beta 3.4 (14718) - http://www.bohemiancoding.com/sketch -->
    <title>Shape Copy 2 + Rectangle 128</title>
    <desc>Created with Sketch Beta.</desc>
    <defs></defs>
    <g id="Page-1" stroke="none" stroke-width="1" fill="none" fill-rule="evenodd" sketch:type="MSPage">
        <g id="Dashboard-OK" sketch:type="MSArtboardGroup" transform="translate(-1024.000000, -18.000000)" fill="#FFFFFF">
            <g id="Shape-Copy-2-+-Rectangle-128" sketch:type="MSLayerGroup" transform="translate(1024.000000, 18.000000)">
                <path d="M12,-7.10542736e-15 C5.38302649,-7.10542736e-15 1.0658141e-13,5.38302649 1.0658141e-13,12 C1.0658141e-13,18.6169735 5.38302649,24 12,24 C18.6169735,24 24,18.6169735 24,12 C24,5.38302649 18.6169735,-7.10542736e-15 12,-7.10542736e-15 L12,-7.10542736e-15 Z M12,23.0202882 C5.92333755,23.0202882 0.979711801,18.0766624 0.979711801,12 C0.979711801,5.92333755 5.92333755,0.979711801 12,0.979711801 C18.0766624,0.979711801 23.0202882,5.92333755 23.0202882,12 C23.0202882,18.0766624 18.0766624,23.0202882 12,23.0202882 L12,23.0202882 Z" id="Shape-Copy-2" sketch:type="MSShapeGroup"></path>
                <path d="M12.5710678,11.5710678 L12.5710678,7.07106781 L11.5710678,7.07106781 L11.5710678,11.5710678 L7.07106781,11.5710678 L7.07106781,12.5710678 L11.5710678,12.5710678 L11.5710678,17.0710678 L12.5710678,17.0710678 L12.5710678,12.5710678 L17.0710678,12.5710678 L17.0710678,11.5710678 L12.5710678,11.5710678 Z" id="Rectangle-128" sketch:type="MSShapeGroup" transform="translate(12.071068, 12.071068) rotate(-45.000000) translate(-12.071068, -12.071068) "></path>
            </g>
        </g>
    </g>
</svg>