<?xml version="1.0" encoding="UTF-8" standalone="no"?>
<svg width="24px" height="24px" viewBox="0 0 24 24" version="1.1" xmlns="http://www.w3.org/2000/svg" xmlns:xlink="http://www.w3.org/1999/xlink" xmlns:sketch="http://www.bohemiancoding.com/sketch/ns">
    <!-- Generator: Sketch Beta 3.4 (15460) - http://www.bohemiancoding.com/sketch -->
    <title>Page 1</title>
    <desc>Created with Sketch Beta.</desc>
    <defs></defs>
    <g id="Page-1" stroke="none" stroke-width="1" fill="none" fill-rule="evenodd" sketch:type="MSPage">
        <path d="M12,0 C5.38317757,0 0,5.38317757 0,12 C0,18.6168224 5.38317757,24 12,24 C18.6168224,24 24,18.6168224 24,12 C24,5.38317757 18.6168224,0 12,0 L12,0 Z M5.30223486,20.7491264 C9.17773263,19.0966274 9.90134092,18.3018285 10.0749289,17.7444941 C10.0895571,17.6971963 10.0968712,17.6484356 10.0968712,17.5991873 L10.0968712,16.5903291 C10.0968712,16.4625762 10.0466477,16.3401869 9.95790329,16.2494921 C9.33913043,15.6170662 8.8607883,14.738399 8.57310037,13.709549 C8.54286875,13.6008127 8.47606664,13.5067046 8.38390898,13.4418529 C8.08354328,13.2302316 7.90459163,12.88013 7.90459163,12.5041853 C7.90459163,12.1706623 8.04697278,11.9253962 8.16692401,11.7786266 C8.23762698,11.691345 8.27614791,11.5830963 8.27614791,11.4709468 L8.27614791,9.21137749 C8.27614791,6.99276717 9.61901666,5.77082487 12.05705,5.77082487 C14.5297034,5.77082487 15.8364892,6.96009752 15.8364892,9.21137749 L15.8364892,11.4704592 C15.8364892,11.5821211 15.8750102,11.691345 15.9457131,11.778139 C16.0656644,11.9253962 16.2085331,12.1711499 16.2085331,12.5041853 C16.2085331,12.88013 16.0290939,13.2307192 15.7292158,13.4418529 C15.6370581,13.5067046 15.570256,13.6013003 15.5400244,13.709549 C15.2523364,14.7388866 14.7735067,15.6170662 14.1557091,16.2494921 C14.066477,16.3411621 14.0167412,16.4630638 14.0167412,16.5903291 L14.0167412,17.5991873 C14.0167412,17.6484356 14.0240553,17.6971963 14.0386835,17.7444941 C14.2112962,18.2984153 14.9251524,19.0868753 18.7382365,20.7174319 C16.8736286,22.1622105 14.5365299,23.0252743 12.0004876,23.0252743 C9.48199919,23.0252738 7.16050386,22.1748883 5.30223486,20.7491264 L5.30223486,20.7491264 Z M19.5647298,20.0094271 C15.7916294,18.4305567 15.1119057,17.7118245 14.9914669,17.5021536 L14.9914669,16.7834214 C15.6243803,16.0841934 16.1193011,15.1733442 16.4333198,14.1288907 C16.9062983,13.7314913 17.1837464,13.1361235 17.1837464,12.5041853 C17.1837464,12.0736286 17.0555059,11.664039 16.8117026,11.3090614 L16.8117026,9.21137749 C16.8117026,6.40520114 15.0787485,4.79561154 12.05705,4.79561154 C9.07923608,4.79561154 7.30093458,6.4466477 7.30093458,9.21137749 L7.30093458,11.3100366 C7.06054449,11.6635514 6.92986591,12.0809427 6.92986591,12.5041853 C6.92986591,13.1356359 7.20682649,13.7300284 7.67931735,14.1284031 C7.99333604,15.1733442 8.48825681,16.084681 9.12165786,16.7834214 L9.12165786,17.5021536 C9.0002438,17.7132873 8.3122308,18.4393336 4.46940268,20.0420967 C2.32100675,18.0292564 0.974724746,15.1699309 0.974724746,12.0004876 C0.974724746,5.92100772 5.92052011,0.975700935 11.9995124,0.975700935 C18.0785047,0.975700935 23.0242991,5.92149533 23.0242991,12.0004876 C23.0247867,15.1528647 21.6926453,17.9980496 19.5647298,20.0094271 L19.5647298,20.0094271 Z" fill="#FFFFFF" sketch:type="MSShapeGroup"></path>
    </g>
</svg>