<?xml version="1.0" encoding="UTF-8" standalone="no"?>
<svg width="20px" height="20px" viewBox="0 0 20 20" version="1.1" xmlns="http://www.w3.org/2000/svg" xmlns:xlink="http://www.w3.org/1999/xlink" xmlns:sketch="http://www.bohemiancoding.com/sketch/ns">
    <!-- Generator: Sketch Beta 3.4 (14761) - http://www.bohemiancoding.com/sketch -->
    <title>Fill 8</title>
    <desc>Created with Sketch Beta.</desc>
    <defs></defs>
    <g id="Page-1" stroke="none" stroke-width="1" fill="none" fill-rule="evenodd" sketch:type="MSPage">
        <g id="Perfil" sketch:type="MSArtboardGroup" transform="translate(-1131.000000, -1042.000000)" fill="#FFFFFF">
            <path d="M1141.01894,1048.06468 C1138.80054,1048.06468 1137.00229,1049.80723 1137.00229,1051.95675 C1137.00229,1054.10627 1138.80054,1055.84862 1141.01894,1055.84862 C1143.23734,1055.84862 1145.03559,1054.10627 1145.03559,1051.95675 C1145.03559,1049.80723 1143.23734,1048.06468 1141.01894,1048.06468 L1141.01894,1048.06468 Z M1148.73947,1050.4579 L1146.97909,1050.4579 C1147.14561,1051.00181 1147.23555,1051.57753 1147.23555,1052.17391 C1147.23555,1055.50059 1144.45218,1058.19727 1141.01894,1058.19727 C1137.5857,1058.19727 1134.80253,1055.50059 1134.80253,1052.17391 C1134.80253,1051.57753 1134.89227,1051.00181 1135.05899,1050.4579 L1133.22224,1050.4579 L1133.22224,1058.90628 C1133.22224,1059.34344 1133.57999,1059.70118 1134.01715,1059.70118 L1147.94436,1059.70118 C1148.38172,1059.70118 1148.73947,1059.34344 1148.73947,1058.90628 L1148.73947,1050.4579 L1148.73947,1050.4579 Z M1145.56917,1044.22224 C1145.07388,1044.22224 1144.66873,1044.62739 1144.66873,1045.12249 L1144.66873,1047.27768 C1144.66873,1047.77297 1145.07388,1048.17812 1145.56917,1048.17812 L1147.82971,1048.17812 C1148.3248,1048.17812 1148.72995,1047.77297 1148.72995,1047.27768 L1148.72995,1045.12249 C1148.72995,1044.62739 1148.3248,1044.22224 1147.82971,1044.22224 L1145.56917,1044.22224 L1145.56917,1044.22224 Z M1133.56703,1042 L1148.43297,1042 C1149.84472,1042 1151,1043.15528 1151,1044.56703 L1151,1059.43297 C1151,1060.84492 1149.84472,1062 1148.43297,1062 L1133.56703,1062 C1132.15508,1062 1131,1060.84492 1131,1059.43297 L1131,1044.56703 C1131,1043.15528 1132.15508,1042 1133.56703,1042 L1133.56703,1042 Z" id="Fill-8" sketch:type="MSShapeGroup"></path>
        </g>
    </g>
</svg>