<?xml version="1.0" encoding="UTF-8" standalone="no"?>
<svg width="20px" height="20px" viewBox="0 0 20 20" version="1.1" xmlns="http://www.w3.org/2000/svg" xmlns:xlink="http://www.w3.org/1999/xlink" xmlns:sketch="http://www.bohemiancoding.com/sketch/ns">
    <!-- Generator: Sketch Beta 3.4 (14761) - http://www.bohemiancoding.com/sketch -->
    <title>Fill 8</title>
    <desc>Created with Sketch Beta.</desc>
    <defs></defs>
    <g id="Page-1" stroke="none" stroke-width="1" fill="none" fill-rule="evenodd" sketch:type="MSPage">
        <g id="Dashboard_alt_3" sketch:type="MSArtboardGroup" transform="translate(-759.000000, -242.000000)" fill="#1A567A">
            <g id="Fill-8" sketch:type="MSLayerGroup" transform="translate(759.000000, 242.000000)">
                <path d="M10.0189407,6.06468211 C7.80054493,6.06468211 6.00228909,7.80722989 6.00228909,9.9567503 C6.00228909,12.1062707 7.80054493,13.8486159 10.0189407,13.8486159 C12.2373365,13.8486159 14.0355924,12.1062707 14.0355924,9.9567503 C14.0355924,7.80722989 12.2373365,6.06468211 10.0189407,6.06468211 L10.0189407,6.06468211 Z M17.7394686,8.45789991 L15.9790943,8.45789991 C16.1456107,9.00181304 16.2355539,9.57753041 16.2355539,10.1739104 C16.2355539,13.5005925 13.4521772,16.1972673 10.0189407,16.1972673 C6.5857043,16.1972673 3.80253016,13.5005925 3.80253016,10.1739104 C3.80253016,9.57753041 3.89227076,9.00181304 4.05898976,8.45789991 L2.22224473,8.45789991 L2.22224473,16.9062788 C2.22224473,17.3434351 2.57999169,17.701182 3.01714795,17.701182 L16.9443629,17.701182 C17.3817217,17.701182 17.7394686,17.3434351 17.7394686,16.9062788 L17.7394686,8.45789991 L17.7394686,8.45789991 Z M14.5691742,2.22224473 C14.073879,2.22224473 13.6687296,2.62739418 13.6687296,3.12248681 L13.6687296,5.2776793 C13.6687296,5.77297451 14.073879,6.17812396 14.5691742,6.17812396 L16.8297056,6.17812396 C17.3247982,6.17812396 17.7299476,5.77297451 17.7299476,5.2776793 L17.7299476,3.12248681 C17.7299476,2.62739418 17.3247982,2.22224473 16.8297056,2.22224473 L14.5691742,2.22224473 L14.5691742,2.22224473 Z M2.56702691,0 L17.4329731,0 C18.8447163,0 20,1.15528366 20,2.56702691 L20,17.4329731 C20,18.8449189 18.8447163,20 17.4329731,20 L2.56702691,20 C1.15508108,20 0,18.8449189 0,17.4329731 L0,2.56702691 C0,1.15528366 1.15508108,0 2.56702691,0 L2.56702691,0 Z" sketch:type="MSShapeGroup"></path>
            </g>
        </g>
    </g>
</svg>