<?xml version="1.0" encoding="UTF-8"?>
<svg width="200px" height="200px" viewBox="0 0 200 200" version="1.1" xmlns="http://www.w3.org/2000/svg" xmlns:xlink="http://www.w3.org/1999/xlink">
    <!-- Generator: Sketch 3.8.3 (29802) - http://www.bohemiancoding.com/sketch -->
    <title>Artboard 1</title>
    <desc>Created with Sketch.</desc>
    <defs></defs>
    <g id="Page-1" stroke="none" stroke-width="1" fill="none" fill-rule="evenodd">
        <g id="Artboard-1">
            <g id="Group-2" transform="translate(5.000000, 4.000000)">
                <circle id="Oval-1" stroke="#505050" stroke-width="4" cx="95" cy="95" r="95"></circle>
                <g id="notes" opacity="0.739583333" transform="translate(40.000000, 48.000000)"></g>
            </g>
            <g id="arrow-down-sign-to-navigate" opacity="0.65508381" transform="translate(45.000000, 69.000000)"></g>
            <g id="dart-hitting-board-target" opacity="0.75" transform="translate(52.000000, 50.000000)" fill="#000000">
                <g id="Capa_1">
                    <path d="M86.0313016,0 C84.7533651,0 83.7217778,1.0395 83.7217778,2.3203125 L83.7217778,10.7708906 L79.4938095,15.0170625 C71.1133175,7.37240625 59.9829524,2.70703125 47.7963651,2.70703125 C21.7603333,2.70703125 0.578920635,23.9873906 0.578920635,50.1450469 C0.578920635,76.3027031 21.7587937,97.5830625 47.7948254,97.5830625 C73.8308571,97.5830625 95.0138095,76.3027031 95.0138095,50.1450469 C95.0138095,37.8999844 90.3670476,26.7238125 82.7594762,18.2979844 L86.9874444,14.0518125 L94.2408889,14.0518125 C95.5188254,14.0518125 96.5504127,13.0123125 96.5504127,11.7315 C96.5504127,10.4506875 95.5188254,9.4111875 94.2408889,9.4111875 L88.3408254,9.4111875 L88.3408254,2.3203125 C88.3408254,1.0395 87.3061587,0 86.0313016,0 L86.0313016,0 Z M90.3916825,50.1450469 C90.3916825,73.7441719 71.2842222,92.9424375 47.7932857,92.9424375 C24.3054286,92.9424375 5.19488889,73.7441719 5.19488889,50.1450469 C5.19488889,26.5459219 24.3038889,7.34765625 47.7932857,7.34765625 C58.7080952,7.34765625 68.676,11.4979219 76.2219841,18.3041719 L67.3026032,27.2636719 C62.0492063,22.7359687 55.2407302,19.9809844 47.7932857,19.9809844 C31.238619,19.9809844 17.7694762,33.5130469 17.7694762,50.1450469 C17.7694762,66.7770469 31.238619,80.3091094 47.7932857,80.3091094 C64.3494921,80.3091094 77.8186349,66.7770469 77.8186349,50.1450469 C77.8186349,42.6628125 75.0764603,35.8225312 70.5682698,30.5445937 L79.4876508,21.5850937 C86.2591746,29.1663281 90.3916825,39.17925 90.3916825,50.1450469 L90.3916825,50.1450469 Z M54.2091429,50.1450469 C54.2091429,53.6997656 51.3314762,56.590875 47.7932857,56.590875 C44.2550952,56.590875 41.3774286,53.6997656 41.3774286,50.1450469 C41.3774286,46.5903281 44.2550952,43.6992188 47.7932857,43.6992188 C48.7186349,43.6992188 49.5931746,43.9049531 50.3876508,44.2591875 L46.1627619,48.5038125 C45.2605079,49.4102812 45.2605079,50.8813594 46.1627619,51.7878281 C46.6138889,52.2410625 47.205127,52.4653594 47.7963651,52.4653594 C48.3891429,52.4653594 48.980381,52.2395156 49.4315079,51.7878281 L53.6563968,47.5401094 C54.0043651,48.3382969 54.2091429,49.215375 54.2091429,50.1450469 L54.2091429,50.1450469 Z M53.7826508,40.8467813 C52.0566667,39.7191094 50.0027302,39.0585938 47.7932857,39.0585938 C41.7084603,39.0585938 36.758381,44.0317969 36.758381,50.1450469 C36.758381,56.2582969 41.7084603,61.2315 47.7932857,61.2315 C53.8781111,61.2315 58.8281905,56.2582969 58.8281905,50.1450469 C58.8281905,47.9268281 58.1692063,45.8632969 57.0483175,44.1277031 L67.3056825,33.8239688 C70.9839841,38.2526719 73.1995873,43.9420781 73.1995873,50.1435 C73.1995873,64.2200625 61.8059365,75.6669375 47.7948254,75.6669375 C33.7867937,75.6669375 22.3900635,64.2200625 22.3900635,50.1435 C22.3900635,36.0700313 33.7867937,24.6200625 47.7948254,24.6200625 C53.9689524,24.6200625 59.6319048,26.8491094 64.0400159,30.5415 L53.7826508,40.8467813 L53.7826508,40.8467813 Z" id="Shape"></path>
                </g>
            </g>
        </g>
    </g>
</svg>