<?xml version="1.0" encoding="UTF-8"?>
<svg width="200px" height="200px" viewBox="0 0 200 200" version="1.1" xmlns="http://www.w3.org/2000/svg" xmlns:xlink="http://www.w3.org/1999/xlink">
    <!-- Generator: Sketch 3.8.3 (29802) - http://www.bohemiancoding.com/sketch -->
    <title>Artboard 1</title>
    <desc>Created with Sketch.</desc>
    <defs></defs>
    <g id="Page-1" stroke="none" stroke-width="1" fill="none" fill-rule="evenodd">
        <g id="Artboard-1">
            <g id="Group-2" transform="translate(5.000000, 4.000000)">
                <circle id="Oval-1" stroke="#505050" stroke-width="4" cx="95" cy="95" r="95"></circle>
                <g id="notes" opacity="0.739583333" transform="translate(40.000000, 48.000000)"></g>
            </g>
            <g id="arrow-down-sign-to-navigate" opacity="0.65508381" transform="translate(45.000000, 69.000000)"></g>
            <g id="users" opacity="0.765285326" transform="translate(50.000000, 55.000000)" fill="#000000">
                <g id="Capa_1">
                    <path d="M92.5283333,73.9848214 L76.24,66.9550179 C75.8566667,66.7640357 75.4316667,66.297375 75.0666667,65.6746071 L85.9416667,65.6663036 C86.1316667,65.6845714 90.615,66.0931071 94.21,64.553625 C95.5716667,63.9690536 96.585,62.8148571 96.9916667,61.3866429 C97.4016667,59.9451429 97.1416667,58.4189464 96.2816667,57.1966607 C93.1733333,52.789125 85.9183333,41.2720714 85.6916667,29.5906071 C85.6866667,29.3896607 85.03,9.52419643 65.3416667,9.36310714 C62.4433333,9.38635714 59.7633333,9.87626786 57.325,10.7796964 C56.7933333,9.42953571 56.01,8.02125 54.845,6.696 C51.4233333,2.80328571 45.8683333,0.830357143 38.3333333,0.830357143 C30.7983333,0.830357143 25.2433333,2.80328571 21.82,6.69267857 C17.8733333,11.1782679 18.24,16.6171071 18.3333333,17.5288393 L18.3333333,26.3621786 C17.2666667,27.5728393 16.6666667,29.1222857 16.6666667,30.7215536 L16.6666667,37.3644107 C16.6666667,39.3855 17.5883333,41.2704107 19.1616667,42.5275714 C20.6883333,48.5509821 23.8833333,53.0897143 25,54.5461607 L25,60.0414643 C25,61.6490357 24.12,63.12375 22.705,63.8943214 L7.83666667,71.9753571 C3.00166667,74.6059286 0,79.6445357 0,85.1315357 L0,92.1696429 L73.3333333,92.1696429 L76.6666667,92.1696429 L100,92.1696429 L100,86.0299821 C100,80.8950536 97.1366667,76.2815893 92.5283333,73.9848214 L92.5283333,73.9848214 Z M73.3333333,88.8482143 L3.33333333,88.8482143 L3.33333333,85.1315357 C3.33333333,80.8618393 5.67,76.9375714 9.43166667,74.8948929 L24.3,66.8138571 C26.7883333,65.460375 28.3333333,62.8646786 28.3333333,60.043125 L28.3333333,53.3687143 L27.945,52.9070357 C27.905,52.858875 23.82,47.9348571 22.2616667,41.1740893 L22.11,40.5164464 L21.5416667,40.1510893 C20.5766667,39.5299821 20,38.4887143 20,37.3660714 L20,30.7232143 C20,29.7915536 20.3966667,28.923 21.1166667,28.2736607 L21.6666667,27.7804286 L21.6666667,17.4375 L21.6516667,17.2199464 C21.6466667,17.1751071 21.08,12.5716071 24.3266667,8.8815 C27.0883333,5.74275 31.8016667,4.15178571 38.3333333,4.15178571 C44.8416667,4.15178571 49.545,5.731125 52.31,8.84828571 C53.685,10.3960714 54.3766667,12.124875 54.7216667,13.6095536 C54.7483333,13.7258036 54.7733333,13.8403929 54.7966667,13.9549821 C54.82,14.0728929 54.845,14.1908036 54.8633333,14.3037321 C54.885,14.4332679 54.9033333,14.5561607 54.9216667,14.6790536 C54.935,14.7670714 54.9483333,14.85675 54.9583333,14.9414464 C54.9833333,15.147375 55.0033333,15.3466607 55.0166667,15.531 C55.0183333,15.5459464 55.0183333,15.5592321 55.0183333,15.5741786 C55.03,15.7535357 55.0383333,15.9229286 55.0433333,16.077375 C55.0433333,16.1072679 55.0433333,16.1321786 55.045,16.1620714 C55.0483333,16.2999107 55.0483333,16.4311071 55.0466667,16.5456964 L55.0466667,16.5955179 C55.04,16.9857857 55.0133333,17.2182857 55.0133333,17.2232679 L55,27.7804286 L55.55,28.2753214 C56.27,28.923 56.6666667,29.7915536 56.6666667,30.7232143 L56.6666667,37.3660714 C56.6666667,38.815875 55.7133333,40.0846607 54.2966667,40.5197679 L53.4666667,40.7738571 L53.2,41.5959107 C52.085,45.0518571 50.4966667,48.24375 48.4766667,51.0835714 C47.9816667,51.7827321 47.5,52.4021786 47.0816667,52.8754821 L46.6666667,53.347125 L46.6666667,60.1975714 C46.6666667,60.6177321 46.7083333,61.0295893 46.7733333,61.4348036 C46.7866667,61.5211607 46.81,61.6041964 46.8266667,61.6905536 C46.8916667,62.0243571 46.9783333,62.3515179 47.085,62.670375 C47.11,62.7451071 47.1366667,62.8165179 47.165,62.89125 C47.295,63.2383393 47.4466667,63.5738036 47.6233333,63.8959821 C47.6433333,63.9325179 47.6616667,63.9707143 47.6816667,64.00725 C47.9233333,64.4323929 48.2016667,64.8359464 48.5216667,65.2079464 L48.9016667,65.6746071 L48.9666667,65.6746071 C49.5383333,66.2359286 50.195,66.7241786 50.9416667,67.0961786 L66.8633333,75.02775 C70.855,77.0139643 73.3333333,81.0096429 73.3333333,85.455375 L73.3333333,88.8482143 L73.3333333,88.8482143 Z M96.6666667,88.8482143 L76.6666667,88.8482143 L76.6666667,85.455375 C76.6666667,79.7441786 73.4816667,74.6109107 68.3566667,72.0567321 L56.9266667,66.3604821 C57.2083333,65.7194464 57.245,64.9854107 56.9983333,64.2779464 C56.59,63.1071429 55.5233333,62.3515179 54.2816667,62.3515179 L50.5866667,62.3515179 C50.51,62.217 50.46,62.0691964 50.3983333,61.926375 C50.315,61.7353929 50.2166667,61.5477321 50.1616667,61.3467857 C50.06,60.9781071 50,60.5928214 50,60.1975714 L50,54.5826964 C50.3816667,54.1176964 50.7833333,53.5879286 51.1983333,53.0033571 C53.2633333,50.0971071 54.9183333,46.8620357 56.1216667,43.372875 C58.4733333,42.2983929 60,39.9816964 60,37.3660714 L60,30.7232143 C60,29.1239464 59.4,27.5745 58.3333333,26.3638393 L58.3333333,17.5305 C58.3766667,17.1153214 58.47,15.7551964 58.1933333,13.9782321 C60.34,13.1379107 62.745,12.7044643 65.3433333,12.682875 C81.745,12.8173929 82.3433333,28.9761429 82.36,29.6570357 C82.605,42.2502321 90.27,54.4465179 93.555,59.1048214 C93.8366667,59.5033929 93.9216667,60.0049286 93.7866667,60.4782321 C93.71,60.7505893 93.49,61.2454821 92.895,61.4995714 C90.095,62.7002679 86.2966667,62.3598214 86.1016667,62.3515179 L74.63,62.3515179 C73.5583333,62.3515179 72.5816667,62.8945714 72.0166667,63.8029821 C71.4533333,64.7080714 71.4,65.8141071 71.8733333,66.7640357 C72.395,67.8119464 73.3166667,69.2119286 74.8316667,69.9642321 L91.0766667,76.9757679 C94.525,78.7112143 96.6666667,82.1754643 96.6666667,86.0299821 L96.6666667,88.8482143 L96.6666667,88.8482143 Z" id="Shape"></path>
                </g>
            </g>
        </g>
    </g>
</svg>