<?xml version="1.0" encoding="UTF-8"?>
<svg width="200px" height="200px" viewBox="0 0 200 200" version="1.1" xmlns="http://www.w3.org/2000/svg" xmlns:xlink="http://www.w3.org/1999/xlink">
    <!-- Generator: Sketch 3.8.3 (29802) - http://www.bohemiancoding.com/sketch -->
    <title>Artboard 1</title>
    <desc>Created with Sketch.</desc>
    <defs></defs>
    <g id="Page-1" stroke="none" stroke-width="1" fill="none" fill-rule="evenodd">
        <g id="Artboard-1">
            <g id="Group-2" transform="translate(5.000000, 4.000000)">
                <circle id="Oval-1" stroke="#505050" stroke-width="4" cx="95" cy="95" r="95"></circle>
                <g id="notes" opacity="0.739583333" transform="translate(40.000000, 48.000000)"></g>
            </g>
            <g id="arrow-down-sign-to-navigate" opacity="0.65508381" transform="translate(45.000000, 69.000000)"></g>
            <g id="handshake" opacity="0.748018569" transform="translate(41.000000, 62.000000)" fill="#000000">
                <g id="Layer_1">
                    <path d="M78.7503313,15.2231406 L49.2012515,4.97251563 C46.401865,4.01001563 43.2675092,4.20251563 40.5877546,5.50189063 L39.104319,6.22376563 C37.0945031,7.21032813 34.7257914,7.35470313 32.6202699,6.58470313 L30.0840736,5.67032813 C29.9644417,5.59814063 29.8448098,5.52595313 29.7251779,5.47782813 L14.6037055,0.304390625 C14.2448098,0.184078125 13.8380613,0.208140625 13.503092,0.376578125 C13.1681227,0.545015625 12.9049325,0.833765625 12.7853006,1.19470313 L0.080392638,38.4675156 C-0.182797546,39.2134531 0.22395092,40.0315781 0.965668712,40.2962656 L16.1110675,45.5178281 C16.2785521,45.5900156 16.4221104,45.6140781 16.5895951,45.6140781 C16.8049325,45.6140781 17.0202699,45.5659531 17.211681,45.4697031 C17.5466503,45.3012656 17.8098405,45.0125156 17.9294724,44.6515781 L30.1558528,8.79845313 L31.6871411,9.35189063 C34.510454,10.3625156 37.6926626,10.1700156 40.3963436,8.84657813 L41.8797791,8.12470313 C43.8656687,7.13814063 46.210454,6.99376563 48.2920491,7.71564063 L76.7405153,17.5812656 C76.5251779,18.8325156 75.9270184,20.9018906 74.3718037,21.9847031 C72.9840736,22.9472031 70.9742577,22.9953281 68.4380613,22.1050156 L56.0202699,17.8459531 C55.6374479,17.7256406 55.2306994,17.7497031 54.8718037,17.9422031 C54.512908,18.1347031 54.2736442,18.4715781 54.1540123,18.8565781 C54.1300859,18.9287656 52.2877546,25.7625156 46.5454233,28.8425156 C42.9086135,30.8156406 38.410454,30.8878281 33.1705767,29.0831406 C32.4288589,28.8184531 31.615362,29.2275156 31.3521718,29.9734531 C31.0889816,30.7193906 31.4957301,31.5375156 32.2374479,31.8022031 C35.0368344,32.7647031 37.6926626,33.2459531 40.1570798,33.2459531 C42.9803926,33.2459531 45.5644417,32.6203281 47.909227,31.3450156 C53.0294724,28.5778281 55.4938896,23.5247031 56.4270184,21.0222031 L67.4570798,24.8240781 C70.9264049,26.0272031 73.7736442,25.8587656 75.9748712,24.3428281 C79.5159755,21.8884531 79.6834601,16.8353281 79.7073865,16.6187656 C79.7313129,15.9931406 79.3245644,15.4156406 78.7503313,15.2231406 L78.7503313,15.2231406 Z M15.704319,42.3175156 L3.26260123,38.0343906 L15.0343804,3.50470312 L27.1411288,7.66751562 C27.2368344,7.71564062 27.3325399,7.76376562 27.4282454,7.81189062 L27.4760982,7.83595312 L15.704319,42.3175156 L15.704319,42.3175156 Z" id="Shape"></path>
                    <path d="M116.697571,36.5665781 L99.4227239,1.26689062 C99.2552393,0.930015625 98.9681227,0.665328125 98.609227,0.545015625 C98.2503313,0.424703125 97.8435828,0.448765625 97.5086135,0.617203125 L83.1288589,7.69157812 C82.4110675,8.05251562 82.1239509,8.89470312 82.4589202,9.61657812 L99.2073865,44.0259531 L93.5846871,49.1993906 C88.8233374,53.6028281 83.4399018,57.2843906 77.6257914,60.1478281 L50.0865276,73.6950156 C49.3208834,74.0800156 48.4595337,74.1281406 47.6460368,73.8393906 C46.8325399,73.5506406 46.1865276,72.9731406 45.8037055,72.2031406 C45.4208834,71.4331406 45.3730307,70.5668906 45.6601472,69.7487656 C45.9472638,68.9306406 46.5214969,68.2809531 47.2871411,67.8959531 L62.6718037,60.3162656 C63.3895951,59.9553281 63.6767117,59.1131406 63.3417423,58.3912656 C62.9828466,57.6693906 62.1214969,57.3806406 61.4276319,57.7175156 L46.3779387,65.1287656 L38.7932761,68.8584531 C37.214135,69.6284531 35.2760982,68.9787656 34.510454,67.3906406 C33.7448098,65.8025156 34.3908221,63.8775156 35.9699632,63.0834531 L58.0779387,52.2072031 C58.7957301,51.8462656 59.0828466,51.0040781 58.7478773,50.2822031 C58.3889816,49.5603281 57.5276319,49.2715781 56.8337669,49.6084531 L40.4681227,57.6693906 L34.7257914,60.4847031 L32.0221104,61.8081406 C30.4429693,62.5781406 28.5049325,61.9284531 27.7392883,60.3403281 C26.9736442,58.7522031 27.6196564,56.8031406 29.1987975,56.0331406 L31.9264049,54.6856406 L51.7135215,44.9403281 C52.4313129,44.5793906 52.7184294,43.7372031 52.3834601,43.0153281 C52.0245644,42.2934531 51.1632147,42.0047031 50.4693497,42.3415781 L37.7644417,48.5978281 L30.6822331,52.0868906 C29.916589,52.4718906 29.0552393,52.5200156 28.2417423,52.2312656 C27.4282454,51.9425156 26.7822331,51.3650156 26.399411,50.5950156 C26.016589,49.8250156 25.9687362,48.9587656 26.2558528,48.1406406 C26.5429693,47.3225156 27.1172025,46.6728281 27.8828466,46.2878281 L38.3865276,41.1143906 C39.104319,40.7534531 39.3914356,39.9112656 39.0564663,39.1893906 C38.6975706,38.4675156 37.8362209,38.1787656 37.1423558,38.5156406 L26.6386748,43.6890781 C25.1791656,44.4109531 24.0785521,45.6622031 23.5521718,47.2022031 C23.0257914,48.7422031 23.1214969,50.4025156 23.8392883,51.8703281 C24.3895951,53.0253281 25.2987975,53.9397031 26.399411,54.5412656 C24.5810061,56.3459531 24.0306994,59.1612656 25.203092,61.5675156 C26.2558528,63.7331406 28.409227,64.9843906 30.6583067,64.9843906 C30.9214969,64.9843906 31.1846871,64.9603281 31.4478773,64.9362656 C31.2564663,66.1393906 31.4000245,67.4147031 31.9742577,68.6178281 C33.0270184,70.7834531 35.1803926,72.0347031 37.4294724,72.0347031 C38.3147485,72.0347031 39.2239509,71.8422031 40.0853006,71.4090781 L42.6932761,70.1097031 C42.5736442,71.2406406 42.7650552,72.3715781 43.2914356,73.4062656 C44.009227,74.8740781 45.2533988,75.9809531 46.7846871,76.5103281 C47.4306994,76.7268906 48.100638,76.8472031 48.7705767,76.8472031 C49.6797791,76.8472031 50.5889816,76.6306406 51.4264049,76.2215781 L78.9656687,62.6743906 C85.0429693,59.6906406 90.617816,55.8406406 95.5945031,51.2447031 L101.839288,45.4697031 L116.027632,38.4915781 C116.745423,38.1306406 117.03254,37.2884531 116.697571,36.5665781 L116.697571,36.5665781 Z M101.623951,42.4378281 L85.6650552,9.64064062 L97.4846871,3.84157812 L113.419656,36.6387656 L101.623951,42.4378281 L101.623951,42.4378281 Z" id="Shape"></path>
                </g>
            </g>
        </g>
    </g>
</svg>