<?xml version="1.0" encoding="UTF-8"?>
<svg width="200px" height="200px" viewBox="0 0 200 200" version="1.1" xmlns="http://www.w3.org/2000/svg" xmlns:xlink="http://www.w3.org/1999/xlink">
    <!-- Generator: Sketch 3.8.3 (29802) - http://www.bohemiancoding.com/sketch -->
    <title>Artboard 1</title>
    <desc>Created with Sketch.</desc>
    <defs></defs>
    <g id="Page-1" stroke="none" stroke-width="1" fill="none" fill-rule="evenodd">
        <g id="Artboard-1">
            <g id="Group-2" transform="translate(5.000000, 4.000000)">
                <circle id="Oval-1" stroke="#505050" stroke-width="4" cx="95" cy="95" r="95"></circle>
                <g id="notes" opacity="0.739583333" transform="translate(40.000000, 48.000000)"></g>
            </g>
            <g id="arrow-down-sign-to-navigate" opacity="0.65508381" transform="translate(45.000000, 69.000000)"></g>
            <g id="paper-plane" opacity="0.7" transform="translate(49.000000, 55.000000)" fill="#000000">
                <g id="Capa_1">
                    <path d="M0.00858248473,42.5394929 C0.128338086,44.5642571 1.46560896,46.2682665 3.40165784,46.8496344 L39.248501,57.7352476 L40.5658126,82.5536439 C40.6256904,83.5359552 41.2843462,84.3979835 42.2224318,84.7187382 C42.4819022,84.8189741 42.761332,84.8590684 43.0208024,84.8590684 C43.7193768,84.8590684 44.3780326,84.578408 44.857055,84.0371344 L57.5311894,69.9439741 L75.4945295,82.4333608 C76.2929002,82.9946816 77.2309857,83.2953892 78.2089898,83.2953892 C80.464387,83.2953892 82.4203951,81.6916156 82.8994175,79.4463325 L97.8089898,3.12675708 C97.9886232,2.2446816 97.6493157,1.32251179 96.9707006,0.761191038 C96.2721263,0.179823113 95.3340407,0.0394929245 94.4957515,0.380294811 L2.8827169,37.828408 C1.02650509,38.6703892 -0.111173116,40.5147288 0.00858248473,42.5394929 L0.00858248473,42.5394929 Z M45.1165255,76.3991627 L44.2981955,60.7423231 L53.4794582,67.1173231 L45.1165255,76.3991627 L45.1165255,76.3991627 Z M78.1291527,78.3036439 L45.4358737,55.5701533 L91.2823096,11.025342 L78.1291527,78.3036439 L78.1291527,78.3036439 Z M86.2525743,9.06071934 L40.9250794,53.1043514 L5.11815479,42.2387854 L86.2525743,9.06071934 L86.2525743,9.06071934 Z" id="Shape"></path>
                </g>
            </g>
        </g>
    </g>
</svg>