<?xml version="1.0" encoding="utf-8"?>
<!-- Generator: Adobe Illustrator 16.0.4, SVG Export Plug-In . SVG Version: 6.00 Build 0)  -->
<!DOCTYPE svg PUBLIC "-//W3C//DTD SVG 1.1//EN" "http://www.w3.org/Graphics/SVG/1.1/DTD/svg11.dtd">
<svg version="1.1" id="Capa_1" xmlns="http://www.w3.org/2000/svg" xmlns:xlink="http://www.w3.org/1999/xlink" x="0px" y="0px"
	 width="90px" height="90px" viewBox="0 0 90 90" enable-background="new 0 0 90 90" xml:space="preserve">
<g>
	<g>
		<path fill="#010002" d="M44.999,90C20.186,90,0,69.812,0,44.999S20.186,0,44.999,0s44.999,20.186,44.999,44.999
			C90,69.812,69.812,90,44.999,90z M44.999,5.141c-21.979,0-39.858,17.882-39.858,39.858S23.02,84.854,44.999,84.854
			c21.976,0,39.855-17.879,39.855-39.855S66.975,5.141,44.999,5.141z"/>
	</g>
	<g>
		<path fill="#010002" d="M62.741,47.568H27.256c-1.42,0-2.573-1.146-2.573-2.57c0-1.42,1.15-2.573,2.573-2.573h35.485
			c1.42,0,2.57,1.153,2.57,2.573C65.312,46.422,64.164,47.568,62.741,47.568z"/>
	</g>
	<g>
		<path fill="#010002" d="M44.999,65.312c-1.42,0-2.573-1.15-2.573-2.57V27.256c0-1.42,1.153-2.573,2.573-2.573
			c1.419,0,2.57,1.153,2.57,2.573v35.485C47.568,64.164,46.422,65.312,44.999,65.312z"/>
	</g>
</g>
</svg>
