<?xml version="1.0" encoding="UTF-8"?>
<svg width="200px" height="200px" viewBox="0 0 200 200" version="1.1" xmlns="http://www.w3.org/2000/svg" xmlns:xlink="http://www.w3.org/1999/xlink">
    <!-- Generator: Sketch 3.8.3 (29802) - http://www.bohemiancoding.com/sketch -->
    <title>Artboard 1</title>
    <desc>Created with Sketch.</desc>
    <defs></defs>
    <g id="Page-1" stroke="none" stroke-width="1" fill="none" fill-rule="evenodd">
        <g id="Artboard-1">
            <g id="Group-2" transform="translate(5.000000, 4.000000)">
                <circle id="Oval-1" stroke="#505050" stroke-width="4" cx="95" cy="95" r="95"></circle>
                <g id="notes" opacity="0.739583333" transform="translate(40.000000, 48.000000)" fill="#000000">
                    <g id="Capa_1">
                        <g id="Group">
                            <path d="M114.091759,17.2935395 L10.1724138,0.710049043 L10.1724138,9.49694498 L4.06896552,9.00991148 L4.06896552,17.2955688 L0,17.2955688 L0,86.2919803 L118,86.2919803 L118,17.2955688 L114.091759,17.2955688 L114.091759,17.2935395 Z M14.2413793,5.46877213 L68.7695862,14.3977195 L14.2413793,9.93324581 L14.2413793,5.46877213 L14.2413793,5.46877213 Z M8.13793103,13.4033594 L10.1724138,13.7759811 L10.1724138,13.7806389 L23.9194138,16.2958354 L56.8841379,22.3323068 L8.13793103,22.3323068 L8.13793103,13.4033594 L8.13793103,13.4033594 Z M113.931034,82.2313385 L4.06896552,82.2313385 L4.06896552,21.3521519 L107.827586,21.3521519 L113.931034,21.3521519 L113.931034,82.2313385 L113.931034,82.2313385 Z" id="Shape"></path>
                            <path d="M13.2241379,37.5866017 C17.1506897,37.5866017 20.3448276,34.4005909 20.3448276,30.4840299 C20.3448276,26.5674689 17.1506897,23.3814581 13.2241379,23.3814581 C9.29758621,23.3814581 6.10344828,26.5674689 6.10344828,30.4840299 C6.10344828,34.4005909 9.29758621,37.5866017 13.2241379,37.5866017 L13.2241379,37.5866017 Z M13.2241379,27.4400706 C14.9066552,27.4400706 16.2758621,28.8057937 16.2758621,30.4840299 C16.2758621,32.1622661 14.9066552,33.5279892 13.2241379,33.5279892 C11.5416207,33.5279892 10.1724138,32.1642955 10.1724138,30.4840299 C10.1724138,28.8037644 11.5416207,27.4400706 13.2241379,27.4400706 L13.2241379,27.4400706 Z" id="Shape"></path>
                            <path d="M97.6551724,30.4840299 C97.6551724,34.4005909 100.84931,37.5866017 104.775862,37.5866017 C108.702414,37.5866017 111.896552,34.4005909 111.896552,30.4840299 C111.896552,26.5674689 108.702414,23.3814581 104.775862,23.3814581 C100.84931,23.3814581 97.6551724,26.5694982 97.6551724,30.4840299 L97.6551724,30.4840299 Z M107.827586,30.4840299 C107.827586,32.1622661 106.458379,33.5279892 104.775862,33.5279892 C103.093345,33.5279892 101.724138,32.1622661 101.724138,30.4840299 C101.724138,28.8057937 103.093345,27.4400706 104.775862,27.4400706 C106.458379,27.4400706 107.827586,28.8057937 107.827586,30.4840299 L107.827586,30.4840299 Z" id="Shape"></path>
                            <path d="M13.2241379,65.9968888 C9.29758621,65.9968888 6.10344828,69.1828995 6.10344828,73.0994605 C6.10344828,77.0160215 9.29758621,80.2020323 13.2241379,80.2020323 C17.1506897,80.2020323 20.3448276,77.0160215 20.3448276,73.0994605 C20.3448276,69.1828995 17.1506897,65.9968888 13.2241379,65.9968888 L13.2241379,65.9968888 Z M13.2241379,76.1434199 C11.5416207,76.1434199 10.1724138,74.7776968 10.1724138,73.0994605 C10.1724138,71.4212243 11.5416207,70.0555012 13.2241379,70.0555012 C14.9066552,70.0555012 16.2758621,71.4212243 16.2758621,73.0994605 C16.2758621,74.7776968 14.9066552,76.1434199 13.2241379,76.1434199 L13.2241379,76.1434199 Z" id="Shape"></path>
                            <path d="M104.775862,65.9968888 C100.84931,65.9968888 97.6551724,69.1828995 97.6551724,73.0994605 C97.6551724,77.0160215 100.84931,80.2020323 104.775862,80.2020323 C108.702414,80.2020323 111.896552,77.0160215 111.896552,73.0994605 C111.896552,69.1828995 108.702414,65.9968888 104.775862,65.9968888 L104.775862,65.9968888 Z M104.775862,76.1434199 C103.093345,76.1434199 101.724138,74.7776968 101.724138,73.0994605 C101.724138,71.4212243 103.093345,70.0555012 104.775862,70.0555012 C106.458379,70.0555012 107.827586,71.4212243 107.827586,73.0994605 C107.827586,74.7776968 106.458379,76.1434199 104.775862,76.1434199 L104.775862,76.1434199 Z" id="Shape"></path>
                            <path d="M64.1838621,79.7089109 C64.4341034,79.6622368 64.6863793,79.6257093 64.9345862,79.5729474 C65.6832759,79.4126322 66.4258621,79.2218774 67.1582759,79.000683 C67.496,78.8992177 67.8255862,78.7815179 68.1572069,78.6678768 C68.5885172,78.5197374 69.0177931,78.3655102 69.443,78.1970778 C69.8092069,78.052997 70.1733793,77.9048577 70.5314483,77.7465718 C70.9342759,77.5659635 71.331,77.3691208 71.7277241,77.1702488 C72.2811034,76.8922339 72.8222759,76.6000138 73.3553103,76.2875006 C73.4366897,76.2408266 73.518069,76.1921232 73.5994483,76.1434199 L95.8587241,76.1434199 L95.6613793,73.9355347 C95.6410345,73.659549 95.6206897,73.3835634 95.6206897,73.0994605 C95.6206897,68.0647518 99.7283103,63.9675825 104.775862,63.9675825 C105.056621,63.9675825 105.331276,63.9858463 105.605931,64.010198 L107.827586,64.2131286 L107.827586,39.3703618 L105.605931,39.5732925 C105.331276,39.5976441 105.054586,39.6159079 104.775862,39.6159079 C99.7283103,39.6159079 95.6206897,35.5187386 95.6206897,30.4840299 C95.6206897,30.2019563 95.6410345,29.9239414 95.6634138,29.6479557 L95.8607586,27.4400706 L73.5953793,27.4400706 C69.320931,24.8811154 64.3384828,23.3814581 59,23.3814581 C53.6615172,23.3814581 48.679069,24.8811154 44.4046207,27.4400706 L22.1331379,27.4400706 L22.3365862,29.6540437 C22.361,29.9300293 22.3793103,30.2039856 22.3793103,30.4840299 C22.3793103,35.5187386 18.2716897,39.6159079 13.2241379,39.6159079 C12.9433793,39.6159079 12.6666897,39.5976441 12.3920345,39.5732925 L10.1724138,39.3703618 L10.1724138,64.2131286 L12.3920345,64.010198 C12.6666897,63.9858463 12.9433793,63.9675825 13.2241379,63.9675825 C18.2716897,63.9675825 22.3793103,68.0647518 22.3793103,73.0994605 C22.3793103,73.3795048 22.361,73.6554904 22.3365862,73.9294468 L22.1331379,76.1434199 L44.3557931,76.1434199 C44.6792759,76.3382333 45.0047931,76.5269587 45.3343793,76.707567 C45.4361034,76.7643876 45.5418966,76.8151202 45.6456552,76.8699115 C46.3068621,77.2209815 46.9782414,77.5436411 47.6618276,77.8399199 C47.8184828,77.906887 47.9731034,77.9758834 48.1297586,78.0408212 C48.9048966,78.3614516 49.6902069,78.6536717 50.4917931,78.9053056 C50.5121379,78.9113935 50.5324828,78.9195108 50.5528276,78.9255987 C51.3808621,79.1812913 52.2231379,79.3943684 53.0735517,79.5729474 C53.272931,79.6155628 53.4763793,79.6480317 53.6777931,79.6845592 C54.334931,79.8083469 54.9961379,79.9098122 55.6634483,79.9869258 C55.9055517,80.0153361 56.1456207,80.0457757 56.3897586,80.0680981 C57.2544138,80.147241 58.1231379,80.200003 59,80.200003 C59.8585517,80.200003 60.711,80.147241 61.5614138,80.0701274 C61.8258966,80.0457757 62.0883448,80.0153361 62.3507931,79.9848965 C62.9652069,79.9159001 63.5755517,79.8205227 64.1838621,79.7089109 L64.1838621,79.7089109 Z M53.3665172,75.4636023 C53.2383448,75.4331627 53.1101724,75.3966352 52.982,75.3641663 C52.3187586,75.1997925 51.6656897,75.0009205 51.0187241,74.7797261 C50.7196552,74.6762315 50.4226207,74.5686782 50.1276207,74.4550371 C49.6617241,74.2764581 49.2080345,74.0735275 48.7543448,73.8665383 C48.5325862,73.7630437 48.3128621,73.6575197 48.0931379,73.5479372 L53.4885862,70.8976633 C54.6563793,70.3233696 55.3826897,69.1585478 55.3826897,67.8597919 L55.3826897,64.5012901 L54.1538621,63.9736705 C51.5456552,62.8534934 49.8488966,60.7064874 48.965931,57.4088648 L48.675,56.3272446 L47.6028276,55.9944384 C46.959931,55.7955664 46.5286207,55.223302 46.5286207,54.5718947 L46.5286207,52.804369 C46.5286207,52.154991 46.9517931,51.6983971 47.3464828,51.4893786 L48.3026897,50.982052 L48.4145862,49.908549 C48.5834483,48.2769868 48.9496552,46.7732709 49.496931,45.4400167 C49.7308966,44.8697817 49.9302759,44.4436274 50.091,44.0986453 C50.6321724,42.9378822 50.8742759,42.2499474 50.8193448,41.1358583 C52.859931,42.1829803 55.2626552,42.6273983 57.8464483,42.4224384 C58.1129655,42.400116 58.3876207,42.3899695 58.6643103,42.3899695 C65.1339655,42.3899695 68.2914828,44.7155544 68.9058966,49.9288421 L69.03,50.98814 L69.9760345,51.4873493 C70.3747931,51.6983971 70.8,52.154991 70.8,52.8063983 L70.8,54.573924 C70.8,55.2253313 70.3686897,55.7975957 69.7257931,55.9964677 L68.6536207,56.3292739 L68.3626897,57.4108941 C67.4797241,60.7085167 65.7829655,62.857552 63.1747586,63.9756998 L61.945931,64.5033194 L61.945931,67.8760263 C61.945931,69.1524599 62.653931,70.3071352 63.7973103,70.8936047 L69.447069,73.7731902 C69.3717931,73.8097177 69.2985517,73.8462452 69.2212414,73.8807434 C68.5173103,74.2054324 67.8011724,74.4976525 67.0707931,74.7513158 C66.9833103,74.7817554 66.8978621,74.8162536 66.8103793,74.8466932 C62.4891379,76.2875006 57.7813448,76.482314 53.3665172,75.4636023 L53.3665172,75.4636023 Z M78.9114828,31.498683 L91.5903793,31.498683 C92.0867931,37.9660819 97.2747241,43.1408128 103.758621,43.6359635 L103.758621,59.9475269 C97.2747241,60.4426776 92.0867931,65.6174085 91.5903793,72.0848074 L78.9114828,72.0848074 C78.942,72.0543678 78.9684483,72.0218989 78.9989655,71.9914593 C79.3468621,71.6485066 79.6683103,71.2812022 79.9978966,70.9199856 C80.3152759,70.5750036 80.6448621,70.2421974 80.9418966,69.8830102 C81.0558276,69.7450173 81.1555172,69.5948487 81.2674138,69.4548266 C84.6039655,65.2947488 86.7177931,60.2762745 87.3037241,54.8864372 C87.3118621,54.8194701 87.3261034,54.7545323 87.3342414,54.6875652 C87.4318966,53.7337913 87.4827586,52.7678415 87.4827586,51.7917452 C87.4827586,50.8156489 87.4318966,49.8496992 87.3362759,48.8938959 C87.3301724,48.8269288 87.3138966,48.761991 87.3057586,48.6950239 C86.7198276,43.3072159 84.6039655,38.2867123 81.2694483,34.1266346 C81.1575517,33.9866124 81.0578621,33.8364438 80.943931,33.698451 C80.6448621,33.3412931 80.3173103,33.0064575 79.999931,32.6614755 C79.6703448,32.3022883 79.3488966,31.9329545 79.001,31.5900018 C78.9684483,31.5636208 78.942,31.5291226 78.9114828,31.498683 L78.9114828,31.498683 Z M72.0451034,31.2450197 C73.7255862,32.3083762 75.2372069,33.5543702 76.5799655,34.9383571 C76.763069,35.1270825 76.9339655,35.3259545 77.1109655,35.5207679 C77.5483793,36.0017135 77.9613793,36.5009228 78.3581034,37.012308 C78.5635862,37.2801764 78.7711034,37.5480449 78.9664138,37.8240305 C79.3366897,38.3475915 79.6764483,38.8914456 80.004,39.4413876 C80.1484483,39.682875 80.3071379,39.9142159 80.4434483,40.1617913 C80.8605172,40.9248104 81.2328276,41.7142105 81.5644483,42.5198451 C81.6905862,42.824241 81.7923103,43.1387835 81.9062414,43.447238 C82.1137586,44.0154438 82.3070345,44.5877081 82.4738621,45.1721483 C82.5694828,45.5069839 82.654931,45.8438487 82.7342759,46.1827428 C82.8807586,46.7996519 82.9987586,47.4246782 83.0964138,48.0537632 C83.1432069,48.3520712 83.1981379,48.6483499 83.2347586,48.9507165 C83.3425862,49.888256 83.4137931,50.8339127 83.4137931,51.7917452 C83.4137931,52.7495778 83.3425862,53.6952344 83.2327241,54.6307446 C83.1981379,54.9331112 83.1411724,55.2273606 83.0943793,55.527698 C82.9967241,56.1588122 82.8787241,56.7838385 82.7322414,57.3987183 C82.6508621,57.7376124 82.5654138,58.0765066 82.4718276,58.4093128 C82.3070345,58.993753 82.1137586,59.5660173 81.9042069,60.1342231 C81.7902759,60.4447069 81.6885517,60.7592494 81.5624138,61.061616 C81.2287586,61.8672506 80.8584828,62.6566507 80.4414138,63.4196699 C80.3051034,63.6672452 80.1464138,63.8985861 80.0019655,64.1400736 C79.6744138,64.6900156 79.3346552,65.2338696 78.9643793,65.7574306 C78.769069,66.0334163 78.5615517,66.3012847 78.356069,66.5691531 C77.9613793,67.0805383 77.5463448,67.5797476 77.108931,68.0606932 C76.931931,68.2555066 76.7610345,68.4543786 76.577931,68.6431041 C75.6156207,69.6354348 74.5393793,70.5303589 73.400069,71.3623744 C73.0542069,71.1107404 72.7022414,70.8651944 72.3177241,70.6724103 L66.0108276,67.4600185 L66.0108276,67.0906848 C68.857069,65.4956501 70.8691724,62.9184312 72.0105172,59.4057022 C73.7561034,58.4377231 74.866931,56.6113475 74.866931,54.5678361 L74.866931,52.8003104 C74.866931,51.1159862 74.0978966,49.5513911 72.806,48.5062984 C71.9555862,43.6542273 68.7268621,38.3232398 58.6622759,38.3232398 C58.2696207,38.3232398 57.8851034,38.337445 57.5148276,38.3678846 C56.0255862,38.4855843 53.8486897,38.3617967 51.9728966,37.1015975 C51.271,36.6307984 50.744069,36.1762339 50.4104138,35.7521089 C49.7390345,34.9018295 48.620069,34.6075801 47.617069,35.0195293 C46.6201724,35.4294492 46.0342414,36.4258385 46.1583448,37.4932536 C46.2356552,38.1608953 46.3475517,38.9381196 46.5164138,39.7883989 C46.8439655,41.4280783 46.8439655,41.4280783 46.3984138,42.379823 C46.2173448,42.7694498 45.9915172,43.2524246 45.7270345,43.8957147 C45.1431379,45.3182584 44.7240345,46.8747362 44.481931,48.5326794 C43.2103793,49.5777721 42.4555862,51.1322207 42.4555862,52.8003104 L42.4555862,54.5678361 C42.4555862,56.6113475 43.5664138,58.4397524 45.312,59.4057022 C46.4533448,62.9184312 48.4654483,65.4956501 51.3116897,67.0906848 L51.3116897,67.4376962 L44.7728621,70.6521172 C44.5653448,70.7657584 44.3700345,70.9199856 44.1706552,71.0579785 C43.1900345,70.3091645 42.2582414,69.5116471 41.413931,68.6410748 C41.2308276,68.4523493 41.059931,68.2534773 40.882931,68.0586639 C40.4455172,67.5777183 40.0325172,67.078509 39.6357931,66.5671238 C39.4303103,66.2992554 39.2227931,66.031387 39.0274828,65.7554013 C38.6572069,65.2318403 38.3174483,64.6879862 37.9898966,64.1380443 C37.8454483,63.8965568 37.6867586,63.6652159 37.5504483,63.4176406 C37.1333793,62.6546214 36.761069,61.8652213 36.4294483,61.0595867 C36.3033103,60.7551908 36.2015862,60.4406483 36.0876552,60.1321938 C35.8801379,59.563988 35.6868621,58.9917237 35.5200345,58.4072835 C35.4244138,58.072448 35.3389655,57.7355831 35.2596207,57.396689 C35.1131379,56.7797799 34.9951379,56.1547536 34.8974828,55.5256687 C34.8506897,55.2273606 34.7957586,54.9310819 34.7591379,54.6287153 C34.6574138,53.6952344 34.5862069,52.7516071 34.5862069,51.7917452 C34.5862069,50.8318834 34.6574138,49.888256 34.7672759,48.9527458 C34.8018621,48.6503792 34.8588276,48.3561298 34.9056207,48.0557925 C35.0032759,47.4246782 35.1212759,46.7996519 35.2677586,46.1847721 C35.3491379,45.845878 35.4345862,45.5069839 35.5281724,45.1741776 C35.6929655,44.5897374 35.8862414,44.0174731 36.0957931,43.4492673 C36.2097241,43.1387835 36.3114483,42.824241 36.4375862,42.5218744 C36.7712414,41.7162398 37.1415172,40.9268397 37.5585862,40.1638206 C37.6948966,39.9162452 37.8535862,39.6849043 37.9980345,39.4434169 C38.3255862,38.8934749 38.6653448,38.3496208 39.0356207,37.8260598 C39.230931,37.5500742 39.4384483,37.2822057 39.643931,37.0143373 C40.0386207,36.5029522 40.4536552,36.0037428 40.891069,35.5227972 C41.068069,35.3279839 41.2389655,35.1291118 41.422069,34.9403864 C42.7648276,33.5563995 44.2764483,32.3104055 45.956931,31.247049 C49.7349655,28.8504384 54.2026897,27.4420999 59.0020345,27.4420999 C63.8013793,27.4420999 68.267069,28.8484091 72.0451034,31.2450197 L72.0451034,31.2450197 Z M26.4096207,72.0848074 C25.9132069,65.6194378 20.7252759,60.4426776 14.2413793,59.9475269 L14.2413793,43.6359635 C20.7252759,43.1408128 25.9132069,37.9660819 26.4096207,31.498683 L39.0885172,31.498683 C39.058,31.5291226 39.0315517,31.5615915 39.0010345,31.5920311 C38.6531379,31.9349839 38.3316897,32.3022883 38.0021034,32.6635048 C37.6847241,33.0084868 37.3551379,33.3412931 37.0581034,33.7004803 C36.9441724,33.8384731 36.8444828,33.9886417 36.7325862,34.1286639 C33.3960345,38.2887416 31.2822069,43.3072159 30.6962759,48.6970532 C30.6881379,48.7640203 30.6738966,48.8289581 30.6657586,48.8959252 C30.5681034,49.8496992 30.5172414,50.8176782 30.5172414,51.7917452 C30.5172414,52.7658122 30.5681034,53.7337913 30.6637241,54.6895945 C30.6698276,54.7565616 30.6861034,54.8214994 30.6942414,54.8884665 C31.2801724,60.2762745 33.3960345,65.2967781 36.7305517,69.4568559 C36.8424483,69.596878 36.9421379,69.7470467 37.056069,69.8850395 C37.3551379,70.2421974 37.6826897,70.5770329 38.000069,70.922015 C38.3296552,71.2812022 38.6511034,71.6505359 38.999,71.9934886 C39.0295172,72.0239282 39.0559655,72.0563971 39.0864828,72.0868367 L26.4096207,72.0868367 L26.4096207,72.0848074 Z" id="Shape"></path>
                        </g>
                    </g>
                </g>
            </g>
        </g>
    </g>
</svg>