<?xml version="1.0" encoding="UTF-8"?>
<svg width="200px" height="200px" viewBox="0 0 200 200" version="1.1" xmlns="http://www.w3.org/2000/svg" xmlns:xlink="http://www.w3.org/1999/xlink">
    <!-- Generator: Sketch 3.8.3 (29802) - http://www.bohemiancoding.com/sketch -->
    <title>Artboard 1</title>
    <desc>Created with Sketch.</desc>
    <defs></defs>
    <g id="Page-1" stroke="none" stroke-width="1" fill="none" fill-rule="evenodd">
        <g id="Artboard-1">
            <g id="Group-2" transform="translate(5.000000, 4.000000)">
                <circle id="Oval-1" stroke="#505050" stroke-width="4" cx="95" cy="95" r="95"></circle>
                <g id="notes" opacity="0.739583333" transform="translate(40.000000, 48.000000)"></g>
            </g>
            <g id="arrow-down-sign-to-navigate" opacity="0.65508381" transform="translate(45.000000, 69.000000)"></g>
            <g id="speedometer" opacity="0.75" transform="translate(41.000000, 42.000000)" fill="#000000">
                <g id="Capa_1">
                    <g id="Group">
                        <path d="M69.0578143,33.4425 C68.5737333,33.2312901 68.0076143,33.3981235 67.7151429,33.8368333 L53.0952238,55.8770895 C51.300219,56.6306481 49.7791429,58.0447994 48.9419048,59.970966 C47.2112381,63.9407006 49.0281571,68.5592315 52.9991381,70.2882315 C56.9704,72.0186358 61.5926286,70.202287 63.3224524,66.2328333 C64.1625,64.3105988 64.1653095,62.2310802 63.495519,60.4026543 L69.6823714,34.6988056 C69.8059905,34.1814537 69.5427381,33.651463 69.0578143,33.4425 L69.0578143,33.4425 Z" id="Shape"></path>
                        <path d="M72.3247286,16.1946296 L72.0774905,16.1143025 C69.2685286,15.201213 66.7554095,14.6021296 64.3945667,14.2867191 C62.4427905,14.0176512 60.4084143,13.8864877 58.351,13.8864877 C57.654519,13.8864877 56.9378095,13.9041821 56.2261571,13.9314259 C54.2038619,14.0168086 52.1391429,14.276608 50.0884714,14.7147562 C48.592119,15.0307284 47.2811952,15.3733827 46.0820905,15.7519877 C45.1872571,16.0365031 44.3258571,16.3429259 43.3065619,16.7164753 C43.0618524,16.8071944 42.863781,16.9914414 42.7539286,17.2262438 C42.644919,17.4630123 42.633681,17.734608 42.7258333,17.9789599 L44.5222429,22.807858 C44.6149571,23.0510864 44.8012286,23.2476914 45.040881,23.3589136 C45.3898238,23.5201296 45.9590333,23.3092006 46.0489381,23.2830802 C47.3722238,22.8536389 48.4670952,22.5489012 49.4981905,22.3191543 C50.9981952,21.9857685 52.221181,21.7832654 53.3433048,21.6801883 C54.1555381,21.6054784 55.0321095,21.5476204 56.0983238,21.4936944 C56.3697238,21.480213 56.6523619,21.4743148 56.9608476,21.4743148 C57.6573286,21.4743148 58.3613952,21.5071759 59.141881,21.5493056 C60.3516619,21.6122191 61.6274667,21.7661327 63.1558476,22.0371667 C65.1135238,22.3775741 67.118119,22.9494136 69.6562429,23.8875 C69.7652524,23.9262593 69.8804429,23.9447963 69.9967571,23.9447963 C70.138919,23.9447963 70.2822048,23.9141821 70.4145333,23.8509877 C70.6530619,23.7394846 70.8365238,23.5361389 70.9230571,23.2847654 L72.9467571,17.4436327 C73.0330095,17.200966 73.0153095,16.9245957 72.8995571,16.6889506 C72.7815571,16.4541481 72.5744952,16.2757994 72.3247286,16.1946296 L72.3247286,16.1946296 Z" id="Shape"></path>
                        <path d="M33.7392905,23.2240988 C33.5732476,23.0190679 33.3316286,22.8909938 33.069219,22.8659969 C32.8065286,22.8412809 32.5469286,22.9249784 32.3460476,23.0943395 C31.0702429,24.1731389 29.4092524,25.6254877 27.8749714,27.3151667 C26.2103286,29.1421883 24.7027381,31.1127315 23.3940619,33.1759599 C21.7850476,35.7135679 20.5157048,38.2806667 19.6228381,40.8005802 C19.2472048,41.8560679 18.7709905,43.2525247 18.4037857,44.6919537 C18.1472762,45.6980093 17.9343143,46.7147377 17.7550667,47.5845741 C17.7030905,47.8404414 17.7550667,48.1055772 17.8980714,48.3221235 C18.0427619,48.5426019 18.2672429,48.691179 18.5215048,48.7459475 L22.077519,49.4582191 C22.1398905,49.4705772 22.2028238,49.477037 22.2666,49.4773179 L22.2730619,49.4773179 C23.0299476,49.4773179 23.1844714,48.9074444 23.3788905,48.1867469 C23.4687952,47.8575741 23.5803333,47.4368395 23.6783857,47.0675031 C23.783181,46.672608 23.8697143,46.3403457 23.8916286,46.2659167 C24.6080571,43.8493611 25.647581,41.4196049 26.9821048,39.0533241 C28.1932905,36.8996574 29.6876762,34.8476636 31.5503905,32.7720772 C33.1950857,30.9388765 35.081681,29.3952469 36.5409476,28.2487593 C36.7494143,28.0883858 36.8828667,27.8513364 36.9115238,27.5892901 C36.9413048,27.3266821 36.8646048,27.0635123 36.6985619,26.8596049 L33.7392905,23.2240988 L33.7392905,23.2240988 Z" id="Shape"></path>
                        <path d="M99.7262952,59.1126451 L91.7121286,58.279321 C91.208381,58.2251142 90.7462143,58.568892 90.6501286,59.0648981 L90.2138095,61.294679 C90.010681,62.2816358 89.745181,63.2371358 89.4639476,64.2443148 C89.3757286,64.5597253 89.2880714,64.8793488 89.2015381,65.1944784 C88.7197048,66.9731914 87.3837762,69.9489475 86.3450952,71.5613889 C86.1947857,71.7942253 86.1506762,72.0750895 86.2197905,72.3452809 C86.2903095,72.6104167 86.4692762,72.8320185 86.7131429,72.9620586 L94.435681,77.0006049 C94.5758762,77.0747531 94.7323667,77.1118272 94.889981,77.1118272 C94.9916857,77.1118272 95.0936714,77.097784 95.1920048,77.0674506 C95.4423333,76.984034 95.6496762,76.8073704 95.7671143,76.5700401 L96.4276333,75.2454846 C97.5730762,72.955037 98.5123,70.4241698 99.3034619,67.515821 C100.0286,64.8537901 100.377543,62.2063642 100.600057,60.1981852 C100.627871,59.9392284 100.553138,59.6763395 100.389343,59.4732747 C100.225829,59.2724568 99.9858952,59.1441019 99.7262952,59.1126451 L99.7262952,59.1126451 Z" id="Shape"></path>
                        <path d="M89.6898333,46.3029907 C89.9058857,47.1674907 90.116319,48.110071 90.3379905,49.1843765 C90.3905286,49.4441759 90.5447714,49.6657778 90.7670048,49.8092994 C90.9249,49.9129383 91.1097667,49.9648981 91.2985667,49.9648981 C91.3690857,49.9648981 91.4415714,49.9587191 91.5149,49.9407438 L99.0031238,48.258929 C99.2599143,48.1979815 99.4824286,48.0384506 99.621219,47.8154444 C99.7600095,47.5918765 99.8015905,47.3214043 99.7386571,47.0630093 C99.1211238,44.5540494 98.4875762,42.4992469 97.7405238,40.6050988 C96.8296762,38.2933056 95.650519,35.9840401 94.1373095,33.5450154 C93.4880286,32.4971111 92.7288952,31.4169074 91.7469667,30.1426265 C90.8605619,28.9944537 89.9471857,27.9347531 89.0326857,26.9969475 C88.2446143,26.1931142 87.1952571,25.1412778 86.0492524,24.1568488 C85.255281,23.476034 84.4340571,22.828642 83.726619,22.2733735 C83.5223667,22.1163704 83.2602381,22.0422222 83.001481,22.0745216 C82.7424429,22.106821 82.5070048,22.2362994 82.3479857,22.4449815 L78.2823238,27.6760772 C77.9606333,28.0925988 78.0224429,28.68775 78.4242048,29.0275957 C78.4242048,29.0287191 79.1749095,29.6634722 79.5297524,29.9712994 C80.3863762,30.714466 81.2503048,31.5716636 82.1704238,32.5889537 C83.2144429,33.7427438 83.998581,34.7125679 84.6385905,35.6411049 C86.2773857,38.0169352 87.5189143,40.2874414 88.4395952,42.5806975 C89.0203238,44.0341698 89.4178714,45.2163272 89.6898333,46.3029907 L89.6898333,46.3029907 Z" id="Shape"></path>
                        <path d="M26.0653571,72.1118827 C25.7776619,71.5316173 25.5107571,70.9367469 25.2654857,70.3803549 C24.7951714,69.3063302 24.3535143,68.0899074 23.8756143,66.5594784 C23.1072095,64.0920864 22.7577048,61.5328519 22.5166476,59.3541883 C22.4882714,59.0946698 22.355381,58.8534074 22.148319,58.693034 C21.9412571,58.5273241 21.676881,58.4576698 21.4147524,58.4885648 L18.2487,58.9025586 C17.9862905,58.9354198 17.7508524,59.075571 17.5915524,59.284534 C17.4336571,59.4946204 17.3659476,59.7603179 17.405281,60.0198364 L17.4679333,60.4416944 C17.9371238,63.5635 18.5417333,66.0792006 19.3671714,68.3556049 C19.7922524,69.5228765 20.3122952,70.893213 20.9548333,72.2217006 C21.3860952,73.1092315 21.8679286,74.0324321 22.5163667,75.2148704 C22.6405476,75.4448981 22.8535095,75.6246512 23.1035571,75.6973951 C23.1934619,75.7226728 23.2833667,75.73475 23.3752381,75.73475 C23.541,75.73475 23.7053571,75.6844753 23.8506095,75.600216 L26.1296952,74.3388549 C26.5870857,74.0857963 26.7654905,73.5119907 26.5311762,73.0429475 L26.0653571,72.1118827 L26.0653571,72.1118827 Z" id="Shape"></path>
                        <path d="M100.742781,17.7059599 C89.5968381,6.32646605 74.7723857,0.0598240741 59,0.0598240741 C43.2276143,0.0598240741 28.4031619,6.32674691 17.257219,17.7059599 C6.12841429,29.0669167 0,44.1684228 0,60.2279568 C0,70.3887809 2.53419048,80.4352932 7.3283619,89.2836389 C7.88099524,90.3048611 8.94861429,90.9401759 10.1086667,90.9401759 L107.890771,90.9401759 C109.051386,90.9401759 110.119005,90.3042994 110.671357,89.2836389 C115.46581,80.4352932 118,70.3882191 118,60.2279568 C118,44.1684228 111.871867,29.0669167 100.742781,17.7059599 L100.742781,17.7059599 Z M105.970462,84.6162377 L12.029819,84.6162377 C8.29230952,77.1028395 6.3242381,68.7108981 6.3242381,60.2273951 C6.3242381,30.536679 29.9543,6.38235802 59,6.38235802 C88.0457,6.38235802 111.675762,30.536679 111.675762,60.2273951 C111.675762,68.7108981 109.70769,77.1031204 105.970462,84.6162377 L105.970462,84.6162377 Z" id="Shape"></path>
                    </g>
                </g>
            </g>
        </g>
    </g>
</svg>