<?xml version="1.0" encoding="utf-8"?>
<!-- Generator: Adobe Illustrator 16.0.4, SVG Export Plug-In . SVG Version: 6.00 Build 0)  -->
<!DOCTYPE svg PUBLIC "-//W3C//DTD SVG 1.1//EN" "http://www.w3.org/Graphics/SVG/1.1/DTD/svg11.dtd">
<svg version="1.1" id="Capa_1" xmlns="http://www.w3.org/2000/svg" xmlns:xlink="http://www.w3.org/1999/xlink" x="0px" y="0px"
	 width="90px" height="90px" viewBox="0 0 90 90" enable-background="new 0 0 90 90" xml:space="preserve">
<g>
	<g>
		<path fill="#FFFFFF" d="M85.393,35.553l-6.316-1.072c-0.658-2.125-1.504-4.174-2.538-6.129l3.723-5.208
			c1.579-2.219,1.335-5.246-0.602-7.163l-5.603-5.603c-1.053-1.053-2.444-1.636-3.93-1.636c-1.166,0-2.275,0.357-3.215,1.034
			l-5.227,3.723c-2.031-1.071-4.155-1.955-6.355-2.613l-1.053-6.242C53.826,1.956,51.514,0,48.788,0h-7.915
			c-2.726,0-5.039,1.956-5.49,4.644l-1.091,6.392c-2.105,0.658-4.155,1.523-6.11,2.576l-5.17-3.722
			c-0.94-0.677-2.068-1.034-3.234-1.034c-1.485,0-2.895,0.583-3.929,1.636l-5.622,5.603c-1.917,1.917-2.181,4.944-0.602,7.163
			l3.76,5.283c-1.034,1.974-1.861,4.023-2.5,6.147l-6.242,1.053C1.955,36.192,0,38.504,0,41.23v7.915
			c0,2.726,1.955,5.038,4.644,5.489l6.393,1.091c0.658,2.106,1.523,4.155,2.576,6.11l-3.704,5.151
			c-1.58,2.219-1.335,5.245,0.602,7.163l5.603,5.603c1.053,1.054,2.444,1.636,3.929,1.636c1.166,0,2.275-0.357,3.215-1.033
			l5.283-3.761c1.899,0.997,3.892,1.805,5.941,2.444l1.053,6.316C35.985,88.045,38.297,90,41.023,90h7.934
			c2.727,0,5.039-1.955,5.49-4.645l1.071-6.316c2.124-0.658,4.174-1.504,6.13-2.539l5.207,3.723c0.94,0.678,2.068,1.035,3.234,1.035
			l0,0c1.484,0,2.876-0.584,3.929-1.637l5.603-5.602c1.918-1.918,2.182-4.945,0.602-7.164L76.5,61.629
			c1.035-1.974,1.899-4.023,2.539-6.129l6.316-1.053C88.044,53.996,90,51.684,90,48.957v-7.915
			C90.037,38.316,88.082,36.004,85.393,35.553z M84.961,48.957c0,0.244-0.17,0.451-0.414,0.489l-7.896,1.315
			c-0.996,0.17-1.785,0.903-2.029,1.861c-0.715,2.764-1.806,5.415-3.271,7.878c-0.508,0.865-0.471,1.937,0.112,2.764l4.644,6.543
			c0.132,0.188,0.113,0.47-0.057,0.64l-5.602,5.602c-0.133,0.133-0.264,0.15-0.357,0.15c-0.113,0-0.207-0.037-0.282-0.094
			l-6.524-4.644c-0.809-0.583-1.898-0.62-2.764-0.112c-2.463,1.466-5.113,2.557-7.877,3.271c-0.979,0.244-1.711,1.053-1.861,2.029
			l-1.335,7.896c-0.038,0.245-0.245,0.414-0.489,0.414h-7.915c-0.244,0-0.451-0.169-0.489-0.414l-1.316-7.896
			c-0.169-0.996-0.902-1.785-1.861-2.029c-2.688-0.696-5.283-1.768-7.708-3.159c-0.395-0.226-0.846-0.339-1.278-0.339
			c-0.507,0-1.034,0.15-1.466,0.471l-6.581,4.682c-0.094,0.057-0.188,0.094-0.282,0.094c-0.075,0-0.226-0.02-0.357-0.15
			l-5.603-5.603c-0.169-0.169-0.188-0.433-0.056-0.64l4.625-6.486c0.583-0.827,0.621-1.918,0.113-2.782
			c-1.467-2.444-2.595-5.095-3.309-7.858c-0.263-0.959-1.053-1.692-2.031-1.861L5.49,49.635c-0.244-0.038-0.414-0.245-0.414-0.489
			V41.23c0-0.245,0.169-0.451,0.414-0.489l7.84-1.316c0.997-0.169,1.805-0.902,2.049-1.88c0.696-2.764,1.768-5.434,3.215-7.896
			c0.508-0.865,0.452-1.937-0.131-2.745l-4.682-6.581c-0.131-0.188-0.113-0.47,0.057-0.639l5.603-5.603
			c0.132-0.132,0.263-0.15,0.357-0.15c0.113,0,0.207,0.038,0.282,0.094l6.486,4.625c0.827,0.583,1.918,0.621,2.783,0.113
			c2.444-1.466,5.095-2.594,7.859-3.309c0.958-0.263,1.692-1.053,1.861-2.031l1.354-7.953c0.038-0.245,0.244-0.414,0.489-0.414
			h7.916c0.244,0,0.451,0.169,0.488,0.414l1.316,7.84c0.169,0.997,0.902,1.805,1.88,2.049c2.839,0.714,5.546,1.824,8.065,3.309
			c0.865,0.507,1.937,0.47,2.764-0.113l6.486-4.663c0.094-0.057,0.188-0.094,0.282-0.094c0.075,0,0.226,0.019,0.356,0.15
			l5.604,5.603c0.169,0.169,0.188,0.432,0.057,0.639l-4.645,6.524c-0.582,0.808-0.62,1.899-0.113,2.764
			c1.467,2.463,2.558,5.114,3.271,7.877c0.245,0.978,1.053,1.711,2.031,1.861l7.896,1.335c0.244,0.038,0.413,0.244,0.413,0.489
			v7.915H84.961z"/>
		<path fill="#FFFFFF" d="M45.009,25.569c-10.717,0-19.421,8.705-19.421,19.421c0,10.716,8.705,19.421,19.421,19.421
			c10.716,0,19.42-8.705,19.42-19.421C64.43,34.274,55.726,25.569,45.009,25.569z M45.009,59.336
			c-7.916,0-14.345-6.43-14.345-14.345s6.43-14.345,14.345-14.345c7.915,0,14.344,6.43,14.344,14.345S52.924,59.336,45.009,59.336z"
			/>
	</g>
</g>
</svg>
