<?xml version="1.0" encoding="UTF-8"?>
<svg width="200px" height="200px" viewBox="0 0 200 200" version="1.1" xmlns="http://www.w3.org/2000/svg" xmlns:xlink="http://www.w3.org/1999/xlink">
    <!-- Generator: Sketch 3.8.3 (29802) - http://www.bohemiancoding.com/sketch -->
    <title>Artboard 1</title>
    <desc>Created with Sketch.</desc>
    <defs></defs>
    <g id="Page-1" stroke="none" stroke-width="1" fill="none" fill-rule="evenodd">
        <g id="Artboard-1">
            <g id="Group-2" transform="translate(5.000000, 4.000000)">
                <circle id="Oval-1" stroke="#505050" stroke-width="4" cx="95" cy="95" r="95"></circle>
                <g id="notes" opacity="0.739583333" transform="translate(40.000000, 48.000000)"></g>
            </g>
            <g id="arrow-down-sign-to-navigate" opacity="0.65508381" transform="translate(45.000000, 69.000000)"></g>
            <g id="share" transform="translate(58.000000, 54.000000)" fill="#000000">
                <g id="Capa_1">
                    <path d="M58.0743333,63.2488305 C57.2786296,64.0392712 56.5937778,64.9081525 56.0015556,65.8268136 L29.7615556,50.0044237 C30.4555185,48.2787288 30.8488148,46.4021864 30.8488148,44.4336271 C30.8488148,42.4650678 30.4555185,40.5885254 29.7630741,38.8628305 L56.0091481,23.1611186 C58.7045185,27.3667458 63.4301481,30.1694915 68.8117778,30.1694915 C77.1848889,30.1694915 83.996963,23.4024746 83.996963,15.0847458 C83.996963,6.76701695 77.1848889,0 68.8117778,0 C60.4386667,0 53.6265926,6.76701695 53.6265926,15.0847458 C53.6265926,16.9793898 53.9955926,18.7865424 54.6394444,20.4579322 L28.3584444,36.1807627 C25.6433333,32.071678 20.9693333,29.3488814 15.6621111,29.3488814 C7.289,29.3488814 0.476925926,36.1158983 0.476925926,44.4336271 C0.476925926,52.7513559 7.289,59.5183729 15.6621111,59.5183729 C20.9693333,59.5183729 25.6418148,56.7955763 28.3569259,52.6864915 L54.6333704,68.53 C53.9804074,70.2285424 53.6250741,72.0432373 53.6250741,73.9152542 C53.6250741,77.9443898 55.2043333,81.733678 58.0728148,84.581678 C61.0324074,87.5216949 64.9213333,88.9924576 68.8102593,88.9924576 C72.6991852,88.9924576 76.5881111,87.5216949 79.5477037,84.581678 C82.4161852,81.7321695 83.9954444,77.9443898 83.9954444,73.9152542 C83.9954444,69.8861186 82.4161852,66.0968305 79.5477037,63.2488305 C73.627,57.3657797 63.995037,57.3657797 58.0743333,63.2488305 L58.0743333,63.2488305 Z M68.8117778,3.01694915 C75.509963,3.01694915 80.9599259,8.43086441 80.9599259,15.0847458 C80.9599259,21.7386271 75.509963,27.1525424 68.8117778,27.1525424 C62.1135926,27.1525424 56.6636296,21.7386271 56.6636296,15.0847458 C56.6636296,8.43086441 62.1120741,3.01694915 68.8117778,3.01694915 L68.8117778,3.01694915 Z M15.6636296,56.5014237 C8.96544444,56.5014237 3.51548148,51.0875085 3.51548148,44.4336271 C3.51548148,37.7797458 8.96544444,32.3658305 15.6636296,32.3658305 C22.3618148,32.3658305 27.8117778,37.7797458 27.8117778,44.4336271 C27.8117778,51.0875085 22.3618148,56.5014237 15.6636296,56.5014237 L15.6636296,56.5014237 Z M77.4005185,82.4486949 C72.6642593,87.1536271 64.9577778,87.1536271 60.2215185,82.4486949 C57.927037,80.1693898 56.6636296,77.1373559 56.6636296,73.9152542 C56.6636296,70.6931525 57.927037,67.6611186 60.2215185,65.3818136 C62.5904074,63.0285932 65.7003333,61.8534915 68.8117778,61.8534915 C71.9232222,61.8534915 75.0331481,63.0285932 77.402037,65.3818136 C79.6965185,67.6611186 80.9599259,70.6931525 80.9599259,73.9152542 C80.9599259,77.1373559 79.6965185,80.1693898 77.4005185,82.4486949 L77.4005185,82.4486949 Z" id="Shape"></path>
                </g>
            </g>
        </g>
    </g>
</svg>