<?xml version="1.0" encoding="UTF-8" standalone="no"?>
<svg width="13px" height="13px" viewBox="0 0 13 13" version="1.1" xmlns="http://www.w3.org/2000/svg" xmlns:xlink="http://www.w3.org/1999/xlink" xmlns:sketch="http://www.bohemiancoding.com/sketch/ns">
    <!-- Generator: Sketch Beta 3.4 (14809) - http://www.bohemiancoding.com/sketch -->
    <title>Page 1</title>
    <desc>Created with Sketch Beta.</desc>
    <defs></defs>
    <g id="Page-1" stroke="none" stroke-width="1" fill="none" fill-rule="evenodd" sketch:type="MSPage">
        <g id="Cuentas" sketch:type="MSArtboardGroup" transform="translate(-471.000000, -217.000000)" fill="#000000">
            <path d="M483.50027,219.29809 L481.399107,217.197446 C481.271364,217.07022 481.102162,217 480.921818,217 C480.741214,217.000259 480.572012,217.070738 480.446083,217.197964 L472.619518,225.024269 C472.556553,225.087234 472.505507,225.16471 472.471563,225.248404 L471.050059,228.770552 C470.94745,229.021635 471.005491,229.308216 471.197495,229.499961 C471.322648,229.625372 471.496255,229.697406 471.672971,229.697406 L471.674526,229.697406 C471.760811,229.697406 471.845283,229.681082 471.926126,229.648433 L475.451125,228.226152 C475.537151,228.190653 475.612813,228.139867 475.672409,228.077938 L483.462698,220.288168 L483.500788,220.250337 C483.625681,220.124148 483.697456,219.9508 483.697197,219.774861 C483.697715,219.59944 483.626459,219.426352 483.50027,219.29809 L483.50027,219.29809 Z M472.871378,225.642518 L475.055716,227.826856 L472.507321,228.855023 L471.842951,228.190653 L472.871378,225.642518 L472.871378,225.642518 Z M483.134918,219.883689 L475.489733,227.528096 L474.879777,226.91814 C474.89947,226.906998 474.919681,226.897152 474.936523,226.880568 L481.703567,220.113265 C481.804881,220.011951 481.804881,219.848191 481.703567,219.746877 C481.602253,219.645563 481.438493,219.645563 481.337179,219.746877 L474.569876,226.51418 C474.553033,226.531022 474.543446,226.551233 474.532304,226.570926 L473.169101,225.207723 L480.813248,217.563834 C480.852116,217.524708 480.898756,217.518748 480.922336,217.518748 C480.964053,217.518748 481.00318,217.535072 481.032978,217.564611 L483.132586,219.663701 C483.162384,219.694276 483.179745,219.734698 483.179745,219.775379 C483.179745,219.81606 483.162643,219.855705 483.134918,219.883689 L483.134918,219.883689 Z" id="Page-1" sketch:type="MSShapeGroup"></path>
        </g>
    </g>
</svg>