<?xml version="1.0" encoding="UTF-8" standalone="no"?>
<svg width="20px" height="20px" viewBox="0 0 20 20" version="1.1" xmlns="http://www.w3.org/2000/svg" xmlns:xlink="http://www.w3.org/1999/xlink" xmlns:sketch="http://www.bohemiancoding.com/sketch/ns">
    <!-- Generator: Sketch Beta 3.4 (14761) - http://www.bohemiancoding.com/sketch -->
    <title>Fill 14</title>
    <desc>Created with Sketch Beta.</desc>
    <defs></defs>
    <g id="Page-1" stroke="none" stroke-width="1" fill="none" fill-rule="evenodd" sketch:type="MSPage">
        <g id="Perfil" sketch:type="MSArtboardGroup" transform="translate(-1082.000000, -1042.000000)" fill="#FFFFFF">
            <path d="M1083.10381,1042 C1082.49405,1042 1082,1042.49405 1082,1043.10381 L1082,1060.89619 C1082,1061.5058 1082.49405,1062 1083.10381,1062 L1092.68259,1062 L1092.68259,1054.25498 L1090.07624,1054.25498 L1090.07624,1051.23655 L1092.68259,1051.23655 L1092.68259,1049.01057 C1092.68259,1046.4273 1094.26037,1045.02067 1096.56481,1045.02067 C1097.66862,1045.02067 1098.61738,1045.10288 1098.89382,1045.1396 L1098.89382,1047.83925 L1097.29559,1047.84 C1096.04228,1047.84 1095.79964,1048.43551 1095.79964,1049.30942 L1095.79964,1051.23655 L1098.78861,1051.23655 L1098.39939,1054.25498 L1095.79964,1054.25498 L1095.79964,1062 L1100.89619,1062 C1101.5058,1062 1102,1061.5058 1102,1060.89619 L1102,1043.10381 C1102,1042.49405 1101.5058,1042 1100.89619,1042 L1083.10381,1042 Z" id="Fill-14" sketch:type="MSShapeGroup"></path>
        </g>
    </g>
</svg>