<?xml version="1.0" encoding="utf-8"?>
<!-- Generator: Adobe Illustrator 16.0.4, SVG Export Plug-In . SVG Version: 6.00 Build 0)  -->
<!DOCTYPE svg PUBLIC "-//W3C//DTD SVG 1.1//EN" "http://www.w3.org/Graphics/SVG/1.1/DTD/svg11.dtd">
<svg version="1.1" id="Capa_1" xmlns="http://www.w3.org/2000/svg" xmlns:xlink="http://www.w3.org/1999/xlink" x="0px" y="0px"
	 width="90px" height="90px" viewBox="0 0 90 90" enable-background="new 0 0 90 90" xml:space="preserve">
<g>
	<g>
		<g>
			<g>
				<path fill="#010002" d="M2.47,75.608c-3.293,3.293-3.293,8.625,0,11.918c1.646,1.646,3.804,2.466,5.961,2.466
					s4.315-0.82,5.961-2.466l27.673-27.679L30.142,47.936L2.47,75.608z"/>
				<polygon fill="#010002" points="71.632,24.32 83.685,18.088 89.994,5.89 84.111,0.007 71.918,6.323 65.676,18.364 51.016,33.04 
					56.961,38.996 				"/>
				<path fill="#010002" d="M74.272,56.309l-1.135-0.113c-2.057,0-4.007,0.422-5.827,1.096L32.716,22.69
					c0.674-1.82,1.096-3.771,1.096-5.827l-0.113-1.135C33.104,6.958,25.877,0.007,16.955,0.007c-2.596,0-5.029,0.635-7.226,1.686
					l11.198,11.198c0.59,0.59,0.995,1.287,1.264,2.023c0.736,1.989,0.337,4.315-1.264,5.922c-1.096,1.096-2.534,1.646-3.973,1.646
					c-0.663,0-1.32-0.146-1.95-0.382c-0.736-0.281-1.433-0.674-2.022-1.27L1.784,9.638c-1.051,2.197-1.686,4.63-1.686,7.226
					c0,8.922,6.951,16.148,15.722,16.744l1.135,0.112c2.056,0,4.006-0.421,5.827-1.09l34.589,34.595
					c-0.662,1.82-1.084,3.771-1.084,5.827l0.117,1.135c0.585,8.776,7.816,15.721,16.739,15.721c2.596,0,5.034-0.623,7.226-1.686
					L69.171,77.025c-0.585-0.585-0.995-1.287-1.275-2.018c-0.736-1.989-0.337-4.32,1.275-5.928c1.085-1.096,2.534-1.646,3.973-1.646
					c0.663,0,1.314,0.141,1.955,0.382c0.736,0.275,1.438,0.669,2.017,1.265l11.199,11.198C89.371,78.076,90,75.648,90,73.053
					C89.994,64.129,83.044,56.903,74.272,56.309z"/>
			</g>
		</g>
	</g>
</g>
</svg>
