<?xml version="1.0" encoding="UTF-8" standalone="no"?>
<svg width="25px" height="20px" viewBox="0 0 25 20" version="1.1" xmlns="http://www.w3.org/2000/svg" xmlns:xlink="http://www.w3.org/1999/xlink" xmlns:sketch="http://www.bohemiancoding.com/sketch/ns">
    <!-- Generator: Sketch Beta 3.4 (14761) - http://www.bohemiancoding.com/sketch -->
    <title>TwitterLogo_white</title>
    <desc>Created with Sketch Beta.</desc>
    <defs>
        <path id="path-1" d="M0.00534092932,0.0731783624 L24.3359445,0.0731783624 L24.3359445,19.8471826 L0.00534092932,19.8471826"></path>
    </defs>
    <g id="Page-1" stroke="none" stroke-width="1" fill="none" fill-rule="evenodd" sketch:type="MSPage">
        <g id="Perfil" sketch:type="MSArtboardGroup" transform="translate(-1029.000000, -1042.000000)">
            <g id="TwitterLogo_white" sketch:type="MSLayerGroup" transform="translate(1029.000000, 1042.000000)">
                <mask id="mask-2" sketch:name="Clip 2" fill="white">
                    <use xlink:href="#path-1"></use>
                </mask>
                <g id="Clip-2"></g>
                <path d="M21.4683105,3.20088567 C22.4991989,2.5828757 23.2908136,1.60431541 23.6636105,0.438357976 C22.6989496,1.01052018 21.6304077,1.42608782 20.4931458,1.65007414 C19.5823393,0.679615108 18.2847605,0.0731783624 16.8487627,0.0731783624 C14.0913299,0.0731783624 11.8557949,2.30885746 11.8557949,5.06639976 C11.8557949,5.45775266 11.9000356,5.83886771 11.9851344,6.20431439 C7.83558839,5.99608545 4.15666726,4.0081623 1.69414278,0.987195694 C1.264376,1.7246769 1.01815916,2.58243058 1.01815916,3.49751621 C1.01815916,5.22984924 1.89967954,6.75822652 3.23936265,7.65363768 C2.42086523,7.62773147 1.65105928,7.40312197 0.977835143,7.02912891 C0.977479081,7.0499607 0.977479081,7.07088152 0.977479081,7.09189137 C0.977479081,9.51122857 2.69850454,11.5294201 4.98255296,11.9880758 C4.56355706,12.1022055 4.12248531,12.1631875 3.66708207,12.1631875 C3.3453801,12.1631875 3.03257967,12.1319398 2.72779064,12.0736286 C3.36309418,14.0574566 5.20696101,15.5010823 7.39175717,15.5414105 C5.68301584,16.8806102 3.53017625,17.6788953 1.19102724,17.6788953 C0.788054121,17.6788953 0.390599964,17.6553037 0,17.6091889 C2.20954246,19.0259291 4.83398611,19.8525241 7.65355172,19.8525241 C16.8371017,19.8525241 21.8589995,12.2438439 21.8589995,5.64541688 C21.8589995,5.42890863 21.8541926,5.21355771 21.844579,4.99945313 C22.8200107,4.29544524 23.666548,3.41596952 24.3359445,2.41461888 C23.4405377,2.81175839 22.4782802,3.08016808 21.4683105,3.20088567 Z" id="Fill-1" fill="#FFFFFF" sketch:type="MSShapeGroup" mask="url(#mask-2)"></path>
            </g>
        </g>
    </g>
</svg>