<?xml version="1.0" encoding="UTF-8" standalone="no"?>
<svg width="20px" height="17px" viewBox="0 0 20 17" version="1.1" xmlns="http://www.w3.org/2000/svg" xmlns:xlink="http://www.w3.org/1999/xlink" xmlns:sketch="http://www.bohemiancoding.com/sketch/ns">
    <!-- Generator: Sketch Beta 3.4 (14761) - http://www.bohemiancoding.com/sketch -->
    <title>TwitterLogo_white</title>
    <desc>Created with Sketch Beta.</desc>
    <defs>
        <path id="path-1" d="M0.00437956204,0.0600062572 L19.9554745,0.0600062572 L19.9554745,16.2746897 L0.00437956204,16.2746897"></path>
    </defs>
    <g id="Page-1" stroke="none" stroke-width="1" fill="none" fill-rule="evenodd" sketch:type="MSPage">
        <g id="Dashboard_alt_3" sketch:type="MSArtboardGroup" transform="translate(-759.000000, -143.000000)">
            <g id="TwitterLogo_white" sketch:type="MSLayerGroup" transform="translate(759.000000, 143.000000)">
                <mask id="mask-2" sketch:name="Clip 2" fill="white">
                    <use xlink:href="#path-1"></use>
                </mask>
                <g id="Clip-2"></g>
                <path d="M17.6040146,2.62472625 C18.4493431,2.11795808 19.0984672,1.31553864 19.4041606,0.359453541 C18.6131387,0.828626551 17.7369343,1.16939201 16.8043796,1.3530608 C16.0575182,0.557284388 14.9935036,0.0600062572 13.8159854,0.0600062572 C11.5548905,0.0600062572 9.72175182,1.89326311 9.72175182,4.1544478 C9.72175182,4.47535718 9.7580292,4.78787152 9.82781022,5.0875378 C6.42518248,4.91679007 3.40846715,3.28669309 1.38919708,0.809500469 C1.03678832,1.41423506 0.834890511,2.11759308 0.834890511,2.86796329 C0.834890511,4.28847638 1.55773723,5.54174575 2.65627737,6.2759829 C1.98510949,6.25473981 1.35386861,6.07056002 0.801824818,5.7638857 C0.801532847,5.78096778 0.801532847,5.79812285 0.801532847,5.81535092 C0.801532847,7.79920743 2.21277372,9.45412452 4.08569343,9.83022213 C3.74211679,9.92380853 3.38043796,9.97381374 3.0070073,9.97381374 C2.74321168,9.97381374 2.48671533,9.94819064 2.23678832,9.90037543 C2.75773723,11.5271144 4.26970803,12.7108875 6.06124088,12.7439566 C4.66007299,13.8421003 2.89474453,14.4966941 0.976642336,14.4966941 C0.64620438,14.4966941 0.320291971,14.477349 0,14.4395349 C1.81182482,15.6012619 3.96386861,16.2790698 6.27591241,16.2790698 C13.8064234,16.2790698 17.9243796,10.039952 17.9243796,4.62924184 C17.9243796,4.45170508 17.920438,4.27511732 17.9125547,4.09955157 C18.7124088,3.5222651 19.4065693,2.801095 19.9554745,1.97998749 C19.2212409,2.30564188 18.4321898,2.52573782 17.6040146,2.62472625 Z" id="Fill-1" fill="#59ADEB" sketch:type="MSShapeGroup" mask="url(#mask-2)"></path>
            </g>
        </g>
    </g>
</svg>